<svg width="128" height="128" viewBox="0 0 128 128" fill="none" xmlns="http://www.w3.org/2000/svg">
<path d="M10.9243 48.3295C10.8423 48.3235 10.7683 48.2775 10.7243 48.2055C10.6733 48.1245 10.6713 48.0215 10.7203 47.9395L31.3133 11.7855C31.3703 11.6845 31.4833 11.6375 31.5973 11.6585C31.7103 11.6855 31.7923 11.7815 31.8003 11.8955L34.2613 46.8145C34.2663 46.8845 34.2423 46.9535 34.1973 47.0055C34.1503 47.0575 34.0854 47.0895 34.0154 47.0925L10.9603 48.3275C10.9483 48.3295 10.9363 48.3295 10.9243 48.3295ZM31.3403 12.7915L11.4093 47.7835L33.7223 46.5855L31.3403 12.7915Z" fill="#72819C"/>
<path d="M33.9793 47.0925C33.9573 47.0915 33.9333 47.0865 33.9103 47.0775C33.8143 47.0415 33.7473 46.9535 33.7413 46.8505L31.2793 11.9325C31.2723 11.8245 31.3313 11.7205 31.4303 11.6775C31.5283 11.6315 31.6453 11.6515 31.7223 11.7285L50.4233 30.1455C50.5263 30.2475 50.5273 30.4125 50.4273 30.5145L34.1873 47.0145C34.1323 47.0715 34.0563 47.0985 33.9793 47.0925ZM31.8483 12.5845L34.2213 46.2375L49.8723 30.3355L31.8483 12.5845Z" fill="#72819C"/>
<path d="M51.2153 61.3003C51.1643 61.2963 51.1123 61.2763 51.0703 61.2413L33.8343 47.0333C33.7783 46.9863 33.7433 46.9183 33.7403 46.8453C33.7353 46.7723 33.7633 46.7013 33.8143 46.6493L50.0543 30.1483C50.1273 30.0733 50.2393 30.0493 50.3353 30.0883C50.4323 30.1253 50.4983 30.2183 50.5003 30.3223L51.4983 61.0323C51.5003 61.1343 51.4433 61.2293 51.3523 61.2743C51.3093 61.2953 51.2623 61.3043 51.2153 61.3003ZM34.3873 46.8113L50.9573 60.4723L49.9993 30.9483L34.3873 46.8113Z" fill="#72819C"/>
<path d="M44.7913 67.4054C44.7833 67.4054 44.7773 67.4024 44.7703 67.4024C44.6903 67.3894 44.6203 67.3394 44.5823 67.2674L33.7713 46.9554C33.7123 46.8444 33.7393 46.7084 33.8353 46.6304C33.9323 46.5524 34.0703 46.5514 34.1663 46.6304L51.4023 60.8394C51.4593 60.8884 51.4943 60.9574 51.4983 61.0314C51.5003 61.1064 51.4703 61.1794 51.4163 61.2304L44.9913 67.3344C44.9373 67.3854 44.8643 67.4124 44.7913 67.4054ZM34.8493 47.8694L44.8813 66.7204L50.8443 61.0544L34.8493 47.8694Z" fill="#72819C"/>
<path d="M104.831 39.7804C104.765 39.7754 104.702 39.7444 104.656 39.6934L91.1873 24.3944C91.1353 24.3374 91.1133 24.2624 91.1243 24.1864C91.1353 24.1114 91.1784 24.0445 91.2414 24.0035L104.679 15.4554C104.76 15.4034 104.862 15.4005 104.944 15.4465C105.028 15.4915 105.082 15.5804 105.081 15.6744L105.111 39.5225C105.112 39.6305 105.044 39.7284 104.943 39.7664C104.906 39.7784 104.867 39.7834 104.831 39.7804ZM91.7804 24.2795L104.59 38.8285L104.561 16.1494L91.7804 24.2795Z" fill="#72819C"/>
<path d="M69.3573 31.9214C69.3423 31.9204 69.3293 31.9194 69.3153 31.9154C69.2353 31.8944 69.1693 31.8394 69.1363 31.7634L62.3883 15.6794C62.3463 15.5804 62.3703 15.4654 62.4483 15.3914C62.5263 15.3144 62.6403 15.2954 62.7403 15.3434L79.5673 23.2724C79.6483 23.3094 79.7043 23.3874 79.7133 23.4764C79.7263 23.5654 79.6883 23.6544 79.6193 23.7104L69.5413 31.8664C69.4903 31.9084 69.4233 31.9274 69.3573 31.9214ZM63.1323 16.1054L69.4843 31.2414L78.9673 23.5664L63.1323 16.1054Z" fill="#72819C"/>
<path d="M93.7314 127.066C93.6684 127.061 93.6074 127.034 93.5614 126.986L90.6634 123.917C90.5944 123.844 90.5734 123.741 90.6064 123.649C90.6374 123.555 90.7194 123.49 90.8174 123.478L99.2014 122.4C99.3454 122.384 99.4694 122.477 99.4914 122.616C99.8504 124.725 100.133 126.024 100.134 126.036C100.151 126.108 100.135 126.184 100.091 126.243C100.048 126.303 99.9834 126.342 99.9104 126.352L93.7804 127.065C93.7654 127.067 93.7484 127.068 93.7314 127.066ZM91.3934 123.929L93.8514 126.534L99.5654 125.864C99.4684 125.398 99.2644 124.374 99.0204 122.949L91.3934 123.929Z" fill="#72819C"/>
<path d="M31.5183 12.1744C31.5033 12.1734 31.4883 12.1704 31.4733 12.1664L27.7133 11.1744C27.6213 11.1514 27.5483 11.0754 27.5253 10.9824C27.5043 10.8894 27.5353 10.7904 27.6073 10.7274C28.3743 10.0444 29.1973 9.42141 30.0533 8.87441C30.1163 8.83541 30.1933 8.82241 30.2653 8.84441C30.3373 8.86541 30.3973 8.91541 30.4303 8.98241L31.7763 11.8014C31.8203 11.8934 31.8063 12.0024 31.7423 12.0804C31.6853 12.1464 31.6023 12.1814 31.5183 12.1744ZM28.3243 10.7964L31.0603 11.5184L30.0853 9.47741C29.4773 9.87941 28.8883 10.3214 28.3243 10.7964Z" fill="#72819C"/>
<path d="M104.831 39.7803C104.768 39.7753 104.712 39.7493 104.668 39.7063C104.619 39.6583 104.591 39.5913 104.591 39.5213L104.561 15.6753C104.56 15.5653 104.627 15.4673 104.729 15.4293C104.831 15.3913 104.946 15.4203 105.018 15.5023L121.664 34.4803C121.692 34.5123 121.712 34.5523 121.722 34.5943C121.815 34.9983 121.88 35.3723 121.922 35.7373C122.007 36.4503 122.014 37.1773 121.946 37.8993C122.466 38.2663 122.942 38.7083 123.36 39.2173C123.424 39.2963 123.438 39.4033 123.394 39.4943C123.352 39.5863 123.26 39.6433 123.161 39.6453L104.853 39.7813C104.846 39.7813 104.838 39.7803 104.831 39.7803ZM105.082 16.3683L105.112 39.2573L122.58 39.1273C122.255 38.7913 121.902 38.4953 121.525 38.2433C121.445 38.1883 121.401 38.0953 121.41 37.9973C121.491 37.2653 121.488 36.5233 121.404 35.7963C121.365 35.4703 121.306 35.1353 121.227 34.7743L105.082 16.3683Z" fill="#72819C"/>
<path d="M43.5603 79.0683C43.5563 79.0673 43.5523 79.0673 43.5483 79.0673L36.5933 78.1963C36.5203 78.1863 36.4543 78.1463 36.4113 78.0863C35.1143 76.2193 34.1283 74.1633 33.4823 71.9723C33.4443 71.8443 33.5083 71.7113 33.6303 71.6573L44.7093 66.9073C44.7943 66.8703 44.8923 66.8823 44.9673 66.9363C45.0413 66.9913 45.0823 67.0803 45.0723 67.1733L43.8403 78.8363C43.8333 78.9063 43.7983 78.9693 43.7423 79.0133C43.6913 79.0553 43.6253 79.0733 43.5603 79.0683ZM36.7733 77.6933L43.3493 78.5153L44.5053 67.5603L34.0493 72.0463C34.6693 74.0623 35.5843 75.9623 36.7733 77.6933Z" fill="#72819C"/>
<path d="M90.7593 124.05C90.7273 124.047 90.6943 124.04 90.6643 124.024C90.5753 123.981 90.5193 123.892 90.5183 123.794L90.7663 123.79L90.5173 123.746C90.5173 123.67 90.5483 123.588 90.6093 123.537C90.6663 123.485 90.7433 123.457 90.8203 123.468L90.8943 123.479C90.9973 123.497 91.0793 123.574 91.1043 123.675C91.1293 123.778 91.0913 123.885 91.0063 123.947L90.9363 124.001C90.8833 124.038 90.8213 124.055 90.7593 124.05Z" fill="#72819C"/>
<path d="M50.2193 30.5914C50.1583 30.5864 50.1013 30.5604 50.0573 30.5174L31.3563 12.1004C31.2643 12.0104 31.2523 11.8674 31.3283 11.7624C31.4033 11.6584 31.5433 11.6224 31.6583 11.6814L55.2883 23.6814C55.3563 23.7184 55.4063 23.7824 55.4243 23.8584C55.4413 23.9334 55.4243 24.0124 55.3763 24.0754L50.4473 30.4924C50.4033 30.5514 50.3343 30.5884 50.2593 30.5924C50.2453 30.5934 50.2323 30.5924 50.2193 30.5914ZM32.9223 12.9084L50.2143 29.9384L54.7713 24.0044L32.9223 12.9084Z" fill="#72819C"/>
<path d="M50.2193 30.5914C50.1253 30.5834 50.0413 30.5254 50.0033 30.4384C49.9633 30.3514 49.9753 30.2494 50.0333 30.1714L54.9623 23.7554C55.0413 23.6524 55.1823 23.6224 55.2943 23.6854L69.5043 31.4324C69.6113 31.4914 69.6633 31.6184 69.6283 31.7354C69.5943 31.8534 69.4823 31.9314 69.3603 31.9224L50.2213 30.5914H50.2193ZM55.2393 24.2514L50.7433 30.1044L68.2033 31.3194L55.2393 24.2514Z" fill="#72819C"/>
<path d="M55.1473 24.1744C55.1173 24.1724 55.0863 24.1634 55.0573 24.1504C54.9543 24.1024 54.8943 23.9894 54.9103 23.8754L56.7453 11.8164C56.7583 11.7294 56.8163 11.6544 56.8963 11.6174C56.9783 11.5814 57.0723 11.5894 57.1463 11.6394L62.7743 15.3634C62.8373 15.4044 62.8783 15.4714 62.8883 15.5464C62.8983 15.6214 62.8753 15.6974 62.8253 15.7544L55.3653 24.0894C55.3083 24.1514 55.2273 24.1814 55.1473 24.1744ZM57.2003 12.2984L55.5593 23.0894L62.2343 15.6314L57.2003 12.2984Z" fill="#72819C"/>
<path d="M69.3573 31.9213C69.3223 31.9193 69.2853 31.9103 69.2533 31.8923L55.0443 24.1433C54.9733 24.1043 54.9253 24.0373 54.9113 23.9593C54.8973 23.8793 54.9213 23.7983 54.9743 23.7403L62.4343 15.4053C62.4933 15.3383 62.5813 15.3083 62.6723 15.3213C62.7603 15.3353 62.8353 15.3953 62.8693 15.4773L69.6173 31.5613C69.6603 31.6633 69.6353 31.7823 69.5523 31.8553C69.4993 31.9063 69.4273 31.9273 69.3573 31.9213ZM55.5843 23.8433L68.8493 31.0773L62.5493 16.0603L55.5843 23.8433Z" fill="#72819C"/>
<path d="M49.1113 86.7073C49.0993 86.7063 49.0863 86.7033 49.0733 86.6993C48.6623 86.6043 48.2563 86.4923 47.8553 86.3743C47.7923 86.3553 47.7393 86.3153 47.7053 86.2593L43.3553 78.9413C43.3003 78.8483 43.3083 78.7313 43.3763 78.6453C43.4443 78.5623 43.5563 78.5283 43.6603 78.5613L52.0933 81.3053C52.1683 81.3303 52.2293 81.3873 52.2573 81.4613C52.2843 81.5353 52.2783 81.6183 52.2373 81.6863L49.3573 86.5793C49.3073 86.6653 49.2103 86.7153 49.1113 86.7073ZM48.1013 85.9023C48.4003 85.9913 48.7023 86.0723 49.0053 86.1463L51.6223 81.7003L44.1593 79.2703L48.1013 85.9023Z" fill="#72819C"/>
<path d="M124.359 47.2314C124.336 47.2294 124.31 47.2234 124.288 47.2154L104.759 39.7644C104.641 39.7204 104.571 39.5974 104.595 39.4734C104.617 39.3494 104.724 39.2594 104.85 39.2584L123.157 39.1214C123.236 39.1194 123.311 39.1574 123.361 39.2164C124.239 40.2804 124.786 41.5614 124.946 42.9234C125.029 43.6254 125.005 44.3374 124.875 45.0434C124.913 45.1004 124.935 45.1694 124.924 45.2264L124.639 47.0114C124.626 47.0894 124.58 47.1574 124.512 47.1974C124.464 47.2244 124.412 47.2354 124.359 47.2314ZM106.241 39.7714L124.174 46.6134L124.391 45.2564C124.353 45.1944 124.327 45.1264 124.338 45.0754C124.479 44.3794 124.509 43.6764 124.426 42.9854C124.283 41.7644 123.804 40.6124 123.034 39.6454L106.241 39.7714Z" fill="#72819C"/>
<path d="M125.825 48.6813C125.764 48.6763 125.708 48.6523 125.664 48.6063L124.197 47.1553C124.136 47.0973 124.109 47.0123 124.123 46.9293L124.409 45.1413C124.424 45.0523 124.484 44.9763 124.566 44.9433C124.649 44.9073 124.745 44.9193 124.819 44.9713C125.238 45.2723 125.629 45.6263 125.98 46.0213C126.022 46.0673 126.046 46.1263 126.046 46.1873L126.106 48.4133C126.109 48.5193 126.047 48.6163 125.949 48.6603C125.911 48.6783 125.868 48.6853 125.825 48.6813ZM124.659 46.8793L125.567 47.7793L125.529 46.2993C125.316 46.0693 125.09 45.8543 124.854 45.6583L124.659 46.8793Z" fill="#72819C"/>
<path d="M8.91632 67.2215C8.84532 67.2155 8.77932 67.1815 8.73332 67.1235L0.253319 56.5105C0.224319 56.4745 0.205319 56.4295 0.198319 56.3855L0.174319 56.2205C0.161319 56.1255 0.146318 56.0295 0.134318 55.9335C-0.0996823 53.9235 -0.0276816 51.8935 0.348318 49.9055C0.369318 49.7995 0.452317 49.7175 0.558317 49.6975L10.8993 47.8135C10.9803 47.7995 11.0643 47.8235 11.1243 47.8775C11.1843 47.9355 11.2143 48.0155 11.2053 48.0975L9.19732 66.9895C9.18632 67.0935 9.11232 67.1815 9.01032 67.2125C8.97832 67.2205 8.94632 67.2245 8.91632 67.2215ZM0.705319 56.2405L8.74432 66.3015L10.6503 48.3875L0.829317 50.1765C0.491317 52.0575 0.432319 53.9735 0.653319 55.8705C0.664319 55.9625 0.678318 56.0525 0.692318 56.1425L0.705319 56.2405Z" fill="#72819C"/>
<path d="M90.7234 127.42C90.6654 127.416 90.6114 127.392 90.5684 127.353C90.5114 127.302 90.4804 127.229 90.4844 127.153C90.5134 126.049 90.5264 124.952 90.5184 123.793C90.5174 123.711 90.5554 123.634 90.6234 123.583L90.6954 123.529C90.7584 123.482 90.8414 123.464 90.9154 123.485C90.9934 123.505 91.0574 123.558 91.0884 123.63L92.5474 126.87C92.5824 126.945 92.5774 127.034 92.5374 127.105C92.4964 127.177 92.4224 127.226 92.3394 127.237L90.7744 127.419C90.7584 127.422 90.7394 127.422 90.7234 127.42ZM91.0434 124.797C91.0414 125.497 91.0314 126.183 91.0134 126.867L91.9264 126.76L91.0434 124.797Z" fill="#72819C"/>
<path d="M92.2903 127.236C92.1953 127.228 92.1123 127.172 92.0743 127.084L90.6133 123.843C90.5603 123.729 90.6003 123.591 90.7063 123.519C90.8123 123.448 90.9543 123.464 91.0423 123.558L93.9423 126.627C94.0083 126.7 94.0303 126.803 93.9983 126.897C93.9643 126.988 93.8803 127.055 93.7823 127.066L92.3413 127.237C92.3233 127.236 92.3073 127.237 92.2903 127.236ZM91.7263 125.041L92.4713 126.694L93.2043 126.607L91.7263 125.041Z" fill="#72819C"/>
<path d="M125.825 48.6815C125.788 48.6785 125.75 48.6675 125.718 48.6495C125.637 48.6035 125.588 48.5195 125.584 48.4295L125.525 46.2025C125.522 46.0945 125.586 45.9945 125.688 45.9525C125.79 45.9115 125.906 45.9395 125.979 46.0215C126.451 46.5475 126.835 47.1235 127.121 47.7325C127.18 47.8575 127.132 48.0055 127.013 48.0725L125.972 48.6495C125.927 48.6755 125.876 48.6855 125.825 48.6815ZM126.067 46.9655L126.096 47.9855L126.54 47.7375C126.403 47.4725 126.246 47.2145 126.067 46.9655Z" fill="#72819C"/>
<path d="M55.1473 24.1745C55.1153 24.1725 55.0813 24.1635 55.0503 24.1475L31.4213 12.1475C31.3263 12.0995 31.2703 11.9975 31.2793 11.8925C31.2873 11.7885 31.3603 11.6975 31.4613 11.6655L49.6153 5.97247C49.6813 5.95347 49.7523 5.95847 49.8153 5.99147C49.8773 6.02447 49.9223 6.07847 49.9423 6.14547L55.4183 23.8395C55.4493 23.9395 55.4173 24.0485 55.3373 24.1145C55.2843 24.1595 55.2153 24.1805 55.1473 24.1745ZM32.2293 11.9715L54.7383 23.4025L49.5213 6.54847L32.2293 11.9715Z" fill="#72819C"/>
<path d="M55.1473 24.1744C55.0433 24.1664 54.9513 24.0954 54.9193 23.9914L49.4423 6.29744C49.4093 6.18944 49.4503 6.07144 49.5433 6.00644C49.6373 5.94044 49.7623 5.94344 49.8523 6.01444L57.1623 11.6484C57.2373 11.7064 57.2753 11.8004 57.2613 11.8934L55.4273 23.9524C55.4093 24.0744 55.3093 24.1644 55.1883 24.1734C55.1743 24.1764 55.1613 24.1764 55.1473 24.1744ZM50.1853 6.93144L55.0813 22.7504L56.7213 11.9684L50.1853 6.93144Z" fill="#72819C"/>
<path d="M43.5603 79.0684C43.5033 79.0634 43.4493 79.0404 43.4073 79.0024C43.3453 78.9474 43.3123 78.8634 43.3213 78.7804L44.5523 67.1184C44.5623 67.0224 44.6233 66.9414 44.7113 66.9054C44.7993 66.8684 44.9003 66.8844 44.9753 66.9414L56.0763 75.8664C56.1553 75.9284 56.1893 76.0314 56.1673 76.1294C56.1443 76.2254 56.0673 76.3014 55.9693 76.3234L43.6353 79.0624C43.6113 79.0694 43.5853 79.0704 43.5603 79.0684ZM45.0213 67.6484L43.8783 78.4744L55.3263 75.9324L45.0213 67.6484Z" fill="#72819C"/>
<path d="M51.9913 81.8124C51.9723 81.8114 51.9513 81.8084 51.9323 81.8004L43.4993 79.0554C43.3873 79.0204 43.3143 78.9144 43.3193 78.7954C43.3253 78.6794 43.4093 78.5774 43.5253 78.5534L55.8573 75.8134C55.9643 75.7904 56.0713 75.8344 56.1303 75.9224C56.1903 76.0144 56.1893 76.1324 56.1263 76.2194L52.2253 81.7044C52.1713 81.7804 52.0813 81.8204 51.9913 81.8124ZM44.5693 78.8554L51.9113 81.2464L55.3073 76.4704L44.5693 78.8554Z" fill="#72819C"/>
<path d="M55.8923 76.3294C55.8423 76.3254 55.7923 76.3074 55.7503 76.2714L44.6483 67.3474C44.5893 67.3004 44.5543 67.2304 44.5513 67.1554C44.5483 67.0804 44.5773 67.0084 44.6313 66.9574L51.0573 60.8514C51.1213 60.7894 51.2153 60.7654 51.3023 60.7884C51.3903 60.8104 51.4593 60.8774 51.4873 60.9624L56.1643 75.9914C56.1983 76.1004 56.1563 76.2194 56.0603 76.2864C56.0113 76.3194 55.9503 76.3344 55.8923 76.3294ZM45.2073 67.1294L55.4093 75.3304L51.1123 61.5184L45.2073 67.1294Z" fill="#72819C"/>
<path d="M55.8923 76.3295C55.7883 76.3205 55.6963 76.2495 55.6643 76.1455L50.9883 61.1175C50.9573 61.0195 50.9873 60.9145 51.0623 60.8455C51.1383 60.7775 51.2453 60.7585 51.3413 60.8015L79.5443 73.0775C79.6523 73.1245 79.7153 73.2385 79.6993 73.3555C79.6803 73.4705 79.5873 73.5635 79.4703 73.5765L55.9433 76.3275C55.9273 76.3305 55.9093 76.3305 55.8923 76.3295ZM51.6553 61.5065L56.0983 75.7855L78.4483 73.1695L51.6553 61.5065Z" fill="#72819C"/>
<path d="M10.9243 48.3295C10.8943 48.3275 10.8643 48.3185 10.8363 48.3055L2.54029 44.4575C2.47529 44.4275 2.42429 44.3715 2.40229 44.3035C2.37929 44.2345 2.38529 44.1595 2.42129 44.0965C2.77329 43.4485 3.15129 42.8305 3.54529 42.2615C3.78829 36.1675 6.89429 30.4165 11.8683 26.8435C12.7183 23.7095 14.3533 20.7915 16.5973 18.3985C16.6203 18.3735 16.6493 18.3535 16.6803 18.3395L31.4323 11.6755C31.5353 11.6275 31.6573 11.6535 31.7333 11.7385C31.8093 11.8215 31.8223 11.9455 31.7673 12.0435L11.1723 48.1975C11.1213 48.2875 11.0233 48.3375 10.9243 48.3295ZM3.01329 44.1025L10.8383 47.7315L30.9153 12.4835L16.9423 18.7945C14.7533 21.1405 13.1633 23.9995 12.3473 27.0685C12.3323 27.1275 12.2963 27.1795 12.2463 27.2145C7.33729 30.7045 4.27829 36.3635 4.06229 42.3565C4.06029 42.4075 4.04529 42.4555 4.01529 42.4955C3.66629 42.9965 3.32929 43.5365 3.01329 44.1025Z" fill="#72819C"/>
<path d="M0.582304 50.2124C0.521304 50.2074 0.463304 50.1814 0.418304 50.1364C0.358304 50.0754 0.331305 49.9884 0.347305 49.9044C0.732305 47.8704 1.4303 45.9164 2.4203 44.0954C2.4853 43.9734 2.6353 43.9234 2.7583 43.9834L11.0553 47.8314C11.1583 47.8784 11.2193 47.9874 11.2043 48.1024C11.1903 48.2144 11.1043 48.3054 10.9923 48.3254L0.650305 50.2104C0.628305 50.2144 0.605304 50.2144 0.582304 50.2124ZM2.76231 44.5614C1.92031 46.1604 1.3063 47.8614 0.936304 49.6274L10.0903 47.9584L2.76231 44.5614Z" fill="#72819C"/>
<path d="M100.17 95.6485C100.096 95.6425 100.026 95.6035 99.9813 95.5415L83.9263 73.4075C83.8733 73.3355 83.8633 73.2385 83.8973 73.1545C83.9323 73.0695 84.0083 73.0125 84.0973 72.9975L91.5823 71.7965C91.7073 71.7775 91.8253 71.8485 91.8683 71.9635L100.436 95.2985C100.481 95.4215 100.428 95.5595 100.313 95.6185C100.267 95.6445 100.219 95.6525 100.17 95.6485ZM84.5983 73.4455L99.2953 93.7115L91.4523 72.3475L84.5983 73.4455Z" fill="#72819C"/>
<path d="M100.17 95.6483C100.07 95.6403 99.9813 95.5763 99.9453 95.4783L91.3773 72.1443C91.3443 72.0513 91.3643 71.9473 91.4353 71.8743C91.5023 71.8023 91.6053 71.7743 91.7003 71.8033L99.7743 74.2683C99.8823 74.3003 99.9573 74.3973 99.9593 74.5113L100.452 95.3833C100.455 95.5093 100.367 95.6183 100.24 95.6443C100.216 95.6483 100.192 95.6503 100.17 95.6483ZM92.0503 72.4573L99.8933 93.8193L99.4423 74.7113L92.0503 72.4573Z" fill="#72819C"/>
<path d="M56.9813 12.1154C56.9323 12.1114 56.8833 12.0944 56.8433 12.0624L49.5333 6.42841C49.4653 6.37541 49.4273 6.29341 49.4323 6.20741C49.4373 6.12141 49.4853 6.04241 49.5583 5.99841L59.2263 0.177407C59.2563 0.160407 59.2883 0.148406 59.3223 0.143406L59.4503 0.124405C59.5483 0.107405 59.6463 0.0914064 59.7463 0.0804064C61.4433 -0.118594 63.1713 0.0534075 64.7873 0.578407C64.8663 0.603407 64.9283 0.665408 64.9543 0.744408C64.9813 0.822408 64.9683 0.907406 64.9203 0.976406L57.2163 12.0064C57.1753 12.0654 57.1123 12.1044 57.0423 12.1154C57.0223 12.1164 57.0023 12.1174 56.9813 12.1154ZM50.1543 6.24741L56.9453 11.4824L64.2873 0.969406C62.8403 0.548406 61.3113 0.421405 59.8053 0.597405C59.7133 0.607405 59.6233 0.623406 59.5333 0.636406L59.4523 0.649407L50.1543 6.24741Z" fill="#72819C"/>
<path d="M52.2083 87.1913C51.1563 87.1063 50.1013 86.9413 49.0733 86.6993C48.9923 86.6813 48.9263 86.6243 48.8933 86.5493C48.8603 86.4723 48.8663 86.3863 48.9083 86.3143L51.7883 81.4203C51.8303 81.3493 51.9033 81.3033 51.9853 81.2943C52.0683 81.2843 52.1493 81.3163 52.2053 81.3753L57.0453 86.6153C57.1103 86.6853 57.1313 86.7873 57.0983 86.8793C57.0663 86.9703 56.9863 87.0363 56.8913 87.0503L56.7703 87.0703C56.6563 87.0873 56.5433 87.1033 56.4303 87.1183C55.0263 87.2803 53.6053 87.3053 52.2083 87.1913ZM49.5393 86.2703C51.7553 86.7483 54.0553 86.8633 56.3223 86.6013L52.0593 81.9873L49.5393 86.2703Z" fill="#72819C"/>
<path d="M56.8323 87.0544C56.7673 87.0484 56.7063 87.0184 56.6613 86.9704L51.8213 81.7314C51.7383 81.6404 51.7283 81.5024 51.8003 81.4034L55.7023 75.9204C55.7523 75.8474 55.8333 75.8074 55.9213 75.8084C56.0133 75.8004 56.0883 75.8564 56.1353 75.9304L62.0783 85.3224C62.1203 85.3864 62.1303 85.4684 62.1063 85.5414C62.0833 85.6154 62.0273 85.6734 61.9563 85.7044C60.3383 86.3584 58.6333 86.8114 56.8903 87.0534C56.8693 87.0554 56.8503 87.0554 56.8323 87.0544ZM52.3483 81.5314L56.9523 86.5154C58.5023 86.2884 60.0203 85.8914 61.4683 85.3314L55.9023 76.5354L52.3483 81.5314Z" fill="#72819C"/>
<path d="M77.7253 87.6974C77.7013 87.6954 77.6793 87.6914 77.6543 87.6824C74.1053 86.3404 71.3043 83.5864 69.9053 80.0884C67.7293 82.5384 64.9903 84.4754 61.9553 85.7014C61.8383 85.7464 61.7043 85.7034 61.6363 85.5984L55.6933 76.2054C55.6453 76.1314 55.6403 76.0354 55.6783 75.9544C55.7163 75.8734 55.7943 75.8174 55.8843 75.8084L79.4093 73.0554C79.4903 73.0454 79.5683 73.0744 79.6243 73.1314C79.6813 73.1874 79.7093 73.2664 79.6993 73.3454L78.0073 87.4684C77.9963 87.5474 77.9513 87.6184 77.8833 87.6584C77.8353 87.6904 77.7793 87.7024 77.7253 87.6974ZM70.0163 79.3304C70.0253 79.3314 70.0343 79.3314 70.0423 79.3324C70.1323 79.3504 70.2093 79.4134 70.2413 79.5004C71.4883 82.9444 74.1333 85.6884 77.5273 87.0714L79.1403 73.6134L56.3563 76.2804L61.9603 85.1344C64.9703 83.8804 67.6783 81.9074 69.7963 79.4204C69.8513 79.3554 69.9333 79.3234 70.0163 79.3304Z" fill="#72819C"/>
<path d="M90.8303 123.998C90.8233 123.997 90.8173 123.995 90.8093 123.994L90.7363 123.983C90.6093 123.96 90.5163 123.849 90.5173 123.72C90.5203 123.614 90.5863 123.484 90.6873 123.447C90.7843 123.409 90.8983 123.399 90.9703 123.48L91.0433 123.56C91.1193 123.642 91.1343 123.763 91.0823 123.86C91.0323 123.953 90.9323 124.006 90.8303 123.998Z" fill="#72819C"/>
<path d="M79.8903 89.8104C79.7993 89.8024 79.7183 89.7474 79.6763 89.6644C79.4083 89.1194 79.1943 88.6114 79.0233 88.1194C78.5713 88.0044 78.1103 87.8564 77.6543 87.6824C77.5423 87.6404 77.4733 87.5254 77.4863 87.4074L79.1803 73.2864C79.1963 73.1544 79.3053 73.0564 79.4363 73.0554L84.1343 72.9934C84.2143 72.9974 84.2913 73.0284 84.3423 73.0934C84.3933 73.1584 84.4103 73.2424 84.3903 73.3194L80.1643 89.6154C80.1373 89.7204 80.0463 89.7984 79.9363 89.8084C79.9233 89.8104 79.9063 89.8104 79.8903 89.8104ZM78.0303 87.2664C78.4513 87.4184 78.8743 87.5454 79.2873 87.6494C79.3743 87.6704 79.4443 87.7344 79.4733 87.8194C79.5773 88.1314 79.7003 88.4484 79.8423 88.7794L83.8003 73.5214L79.6713 73.5764L78.0303 87.2664Z" fill="#72819C"/>
<path d="M101.562 43.7313C101.56 43.7313 101.558 43.7313 101.555 43.7313C101.469 43.7223 101.392 43.6703 101.352 43.5933L91.1513 24.3453C91.0893 24.2273 91.1263 24.0833 91.2333 24.0083C91.3423 23.9313 91.4903 23.9493 91.5793 24.0503L105.048 39.3483C105.132 39.4453 105.135 39.5873 105.054 39.6863L101.784 43.6373C101.729 43.7033 101.647 43.7383 101.562 43.7313ZM92.6503 26.0573L101.629 43.0033L104.507 39.5243L92.6503 26.0573Z" fill="#72819C"/>
<path d="M108.63 96.3544L100.169 95.6484C100.036 95.6374 99.9334 95.5274 99.9304 95.3944L99.4373 74.5234C99.4343 74.4074 99.5094 74.3024 99.6224 74.2674C99.7344 74.2354 99.8543 74.2754 99.9183 74.3754L112.571 93.9224C112.644 94.0354 112.621 94.1854 112.514 94.2694C111.367 95.1624 110.096 95.8604 108.737 96.3394C108.702 96.3524 108.666 96.3574 108.63 96.3544ZM100.446 95.1484L108.616 95.8294C109.827 95.3954 110.965 94.7834 112.002 94.0044L99.9813 75.4364L100.446 95.1484Z" fill="#72819C"/>
<path d="M112.33 94.3244C112.322 94.3234 112.315 94.3234 112.307 94.3224C112.236 94.3074 112.172 94.2674 112.131 94.2064L99.4794 74.6594C99.4384 74.5964 99.4264 74.5184 99.4484 74.4474C99.4684 74.3754 99.5174 74.3144 99.5844 74.2834L108.331 70.0144C108.403 69.9794 108.488 69.9814 108.56 70.0134C108.634 70.0494 108.685 70.1164 108.702 70.1964L113.526 93.2244C113.544 93.3124 113.517 93.4034 113.45 93.4674C113.155 93.7444 112.841 94.0154 112.513 94.2694C112.459 94.3094 112.395 94.3294 112.33 94.3244ZM100.076 74.6224L112.414 93.6814C112.609 93.5214 112.8 93.3564 112.983 93.1864L108.256 70.6314L100.076 74.6224Z" fill="#72819C"/>
<path d="M113.248 93.5384C113.228 93.5374 113.21 93.5304 113.191 93.5264C113.101 93.4964 113.033 93.4224 113.014 93.3304L108.189 70.3024C108.172 70.2234 108.193 70.1404 108.247 70.0794C108.3 70.0174 108.379 69.9844 108.459 69.9884L123.323 70.8454C123.398 70.8374 123.48 70.8944 123.527 70.9634C123.573 71.0314 123.582 71.1194 123.553 71.1954L118.857 83.9594C118.836 84.0174 118.796 84.0654 118.743 84.0964C118.493 84.2394 118.238 84.3764 117.978 84.5044C117.875 84.5574 117.771 84.6014 117.668 84.6484C117.421 88.0144 115.925 91.1394 113.447 93.4674C113.393 93.5184 113.32 93.5444 113.248 93.5384ZM108.769 70.5304L113.427 92.7594C115.644 90.5244 116.963 87.5944 117.159 84.4574C117.165 84.3614 117.223 84.2754 117.312 84.2354L117.393 84.2004C117.511 84.1464 117.629 84.0924 117.748 84.0354C117.969 83.9274 118.187 83.8114 118.399 83.6894L122.94 71.3444L108.769 70.5304Z" fill="#72819C"/>
<path d="M118.591 84.1303C118.537 84.1263 118.487 84.1083 118.444 84.0713C118.361 83.9993 118.33 83.8833 118.368 83.7803L123.064 71.0153C123.103 70.9103 123.206 70.8413 123.319 70.8443C123.441 70.8523 123.529 70.9253 123.56 71.0333L124.995 76.0123C125.008 76.0603 125.008 76.1103 124.993 76.1583C124.013 79.5363 121.791 82.3553 118.743 84.0963C118.696 84.1243 118.642 84.1353 118.591 84.1303ZM123.278 71.9443L119.115 83.2583C121.701 81.5823 123.587 79.0633 124.47 76.0833L123.278 71.9443Z" fill="#72819C"/>
<path d="M51.2153 61.3004C51.1973 61.2994 51.1793 61.2954 51.1623 61.2894C51.0543 61.2574 50.9793 61.1614 50.9753 61.0494L49.9793 30.3404C49.9773 30.2444 50.0263 30.1544 50.1093 30.1064C50.1933 30.0584 50.2963 30.0604 50.3783 30.1094L66.2903 39.9304C66.3513 39.9684 66.3943 40.0294 66.4083 40.1014C66.4233 40.1714 66.4063 40.2454 66.3643 40.3044L51.4483 61.1914C51.3953 61.2684 51.3063 61.3084 51.2153 61.3004ZM50.5173 30.8104L51.4723 60.2604L65.7783 40.2274L50.5173 30.8104Z" fill="#72819C"/>
<path d="M66.1323 40.4124C66.0903 40.4094 66.0523 40.3954 66.0163 40.3744L50.1033 30.5544C50.0013 30.4914 49.9553 30.3674 49.9933 30.2524C50.0293 30.1374 50.1403 30.0634 50.2593 30.0714L69.3973 31.4034C69.4923 31.3964 69.5543 31.4524 69.5993 31.5224C69.6423 31.5924 69.6523 31.6784 69.6233 31.7554L66.3973 40.2454C66.3693 40.3174 66.3113 40.3734 66.2373 40.3994C66.2023 40.4114 66.1673 40.4164 66.1323 40.4124ZM51.2783 30.6664L66.0213 39.7644L69.0093 31.8994L51.2783 30.6664Z" fill="#72819C"/>
<path d="M51.2153 61.3005C51.1463 61.2955 51.0783 61.2605 51.0333 61.2025C50.9603 61.1115 50.9573 60.9825 51.0243 60.8885L65.9413 39.9995C66.0133 39.9005 66.1463 39.8635 66.2563 39.9115L83.6643 47.2845C83.7633 47.3275 83.8243 47.4205 83.8243 47.5265C83.8243 47.6315 83.7613 47.7265 83.6643 47.7665L51.3373 61.2805C51.2973 61.2985 51.2563 61.3045 51.2153 61.3005ZM66.2433 40.4735L51.9813 60.4455L82.8893 47.5245L66.2433 40.4735Z" fill="#72819C"/>
<path d="M79.4203 73.5754C79.3913 73.5734 79.3623 73.5674 79.3363 73.5544L51.1323 61.2794C51.0373 61.2384 50.9743 61.1424 50.9753 61.0394C50.9753 60.9354 51.0393 60.8404 51.1363 60.8004L83.4623 47.2854C83.5493 47.2494 83.6503 47.2634 83.7243 47.3214C83.7993 47.3794 83.8353 47.4744 83.8213 47.5674L79.6983 73.3584C79.6853 73.4364 79.6363 73.5064 79.5653 73.5454C79.5183 73.5704 79.4693 73.5804 79.4203 73.5754ZM51.9023 61.0454L79.2343 72.9424L83.2293 47.9464L51.9023 61.0454Z" fill="#72819C"/>
<path d="M83.5423 47.7863C83.5143 47.7833 83.4873 47.7773 83.4613 47.7653L66.0513 40.3913C65.9223 40.3373 65.8593 40.1893 65.9093 40.0583L69.1353 31.5693C69.1673 31.4833 69.2423 31.4223 69.3323 31.4053C69.4203 31.3863 69.5113 31.4183 69.5733 31.4873L83.7563 47.3503C83.8393 47.4413 83.8463 47.5763 83.7753 47.6763C83.7203 47.7543 83.6303 47.7933 83.5423 47.7863ZM66.4863 40.0093L82.5903 46.8303L69.4703 32.1563L66.4863 40.0093Z" fill="#72819C"/>
<path d="M83.5423 47.7863C83.4773 47.7813 83.4143 47.7503 83.3673 47.6993L69.1834 31.8373C69.1364 31.7833 69.1123 31.7123 69.1173 31.6423C69.1233 31.5713 69.1574 31.5043 69.2134 31.4593L79.2913 23.3053C79.3613 23.2473 79.4614 23.2313 79.5454 23.2633C79.6334 23.2973 79.6964 23.3733 79.7124 23.4643L83.8193 47.4823C83.8393 47.5973 83.7793 47.7103 83.6733 47.7613C83.6323 47.7823 83.5863 47.7903 83.5423 47.7863ZM69.7554 31.6933L83.1513 46.6753L79.2723 23.9913L69.7554 31.6933Z" fill="#72819C"/>
<path d="M79.4203 73.5753C79.3513 73.5703 79.2873 73.5393 79.2423 73.4863C79.1923 73.4283 79.1703 73.3503 79.1823 73.2743L83.3053 47.4833C83.3263 47.3503 83.4453 47.2543 83.5793 47.2633L83.5833 47.2643C83.7153 47.2753 83.8193 47.3853 83.8213 47.5193L84.3973 73.2483C84.3983 73.3163 84.3733 73.3843 84.3253 73.4363C84.2763 73.4853 84.2103 73.5133 84.1393 73.5153L79.4413 73.5773C79.4333 73.5773 79.4283 73.5763 79.4203 73.5753ZM83.3653 50.4103L79.7463 73.0523L83.8713 72.9963L83.3653 50.4103Z" fill="#72819C"/>
<path d="M84.1173 73.5145C84.0643 73.5105 84.0133 73.4915 83.9713 73.4555C83.9133 73.4065 83.8773 73.3355 83.8773 73.2615L83.3023 47.5325C83.2993 47.4035 83.3903 47.2915 83.5193 47.2695C83.6443 47.2455 83.7703 47.3225 83.8113 47.4455L91.8723 71.9735C91.8943 72.0475 91.8873 72.1245 91.8473 72.1915C91.8073 72.2575 91.7403 72.3015 91.6643 72.3115L84.1813 73.5115C84.1573 73.5165 84.1383 73.5165 84.1173 73.5145ZM83.8623 49.2755L84.3923 72.9485L91.2793 71.8445L83.8623 49.2755Z" fill="#72819C"/>
<path d="M83.5423 47.7863C83.4233 47.7763 83.3253 47.6873 83.3063 47.5693L79.1983 23.5513C79.1843 23.4733 79.2103 23.3923 79.2613 23.3333C79.3163 23.2743 79.3923 23.2423 79.4713 23.2473L91.3983 23.9613C91.4703 23.9553 91.5543 24.0083 91.6003 24.0753C91.6443 24.1423 91.6573 24.2283 91.6313 24.3053L83.8103 47.6083C83.7723 47.7233 83.6683 47.7983 83.5423 47.7863ZM79.7683 23.7883L83.6443 46.4603L91.0263 24.4623L79.7683 23.7883Z" fill="#72819C"/>
<path d="M83.5423 47.7865C83.4763 47.7815 83.4143 47.7505 83.3683 47.7005C83.3053 47.6305 83.2853 47.5325 83.3133 47.4425L91.1343 24.1395C91.1673 24.0405 91.2563 23.9705 91.3613 23.9625C91.4663 23.9505 91.5643 24.0075 91.6143 24.1005L101.812 43.3485C101.852 43.4205 101.853 43.5065 101.819 43.5795C101.785 43.6525 101.719 43.7075 101.639 43.7255L83.6183 47.7805C83.5943 47.7865 83.5653 47.7885 83.5423 47.7865ZM91.4363 24.8825L83.9573 47.1705L101.191 43.2925L91.4363 24.8825Z" fill="#72819C"/>
<path d="M31.5183 12.1743C31.5133 12.1743 31.5093 12.1743 31.5053 12.1723C31.4183 12.1603 31.3413 12.1063 31.3043 12.0263L29.9573 9.20729C29.9013 9.08929 29.9413 8.94629 30.0533 8.87429C31.9053 7.69229 33.9353 6.83929 36.0863 6.34329C36.1943 6.31829 36.3103 6.36529 36.3683 6.46329C36.4263 6.56029 36.4163 6.68329 36.3413 6.76829L31.7373 12.0843C31.6823 12.1473 31.6013 12.1813 31.5183 12.1743ZM30.5283 9.19229L31.6023 11.4413L35.4003 7.05529C33.6803 7.53429 32.0453 8.24929 30.5283 9.19229Z" fill="#72819C"/>
<path d="M31.5183 12.1744C31.4403 12.1684 31.3673 12.1254 31.3223 12.0564C31.2573 11.9594 31.2663 11.8314 31.3433 11.7434L35.9473 6.42738C35.9833 6.38538 36.0323 6.35638 36.0873 6.34438C36.8083 6.17738 37.5233 6.05237 38.2123 5.97137C38.5963 5.92637 38.9763 5.89837 39.3573 5.87537C42.0783 3.84437 45.3003 2.56237 48.6823 2.16737C49.1603 2.11237 49.6373 2.07437 50.1023 2.05537C50.1773 2.04837 50.2503 2.08137 50.3023 2.13737C50.3543 2.19237 50.3803 2.26738 50.3723 2.34338L49.9553 6.24937C49.9443 6.35337 49.8733 6.44037 49.7743 6.47037L31.6203 12.1634C31.5853 12.1734 31.5523 12.1774 31.5183 12.1744ZM36.2843 6.83337L32.3383 11.3894L49.4513 6.02438L49.8173 2.59137C49.4623 2.61237 49.1003 2.64437 48.7383 2.68637C45.4233 3.07437 42.2653 4.33637 39.6043 6.34037C39.5633 6.37137 39.5143 6.38938 39.4623 6.39238C39.0643 6.41338 38.6693 6.44238 38.2703 6.48938C37.6273 6.56638 36.9593 6.68137 36.2843 6.83337Z" fill="#72819C"/>
<path d="M49.6723 6.48148C49.6313 6.47848 49.5903 6.46548 49.5533 6.44148C49.4693 6.38748 49.4233 6.29148 49.4333 6.19248L49.8503 2.28649C49.8653 2.15849 49.9693 2.06048 50.0993 2.05448C51.4323 1.99748 52.7823 2.07848 54.1013 2.29748C55.6283 1.17648 57.4303 0.432484 59.3223 0.142484C59.4443 0.122484 59.5643 0.194483 59.6073 0.311483C59.6493 0.430483 59.6033 0.560482 59.4963 0.625482L49.8273 6.44448C49.7803 6.47548 49.7253 6.48548 49.6723 6.48148ZM50.3463 2.56748L50.0093 5.72748L57.8403 1.01348C56.5733 1.39448 55.3793 1.99548 54.3263 2.78348C54.2693 2.82648 54.1993 2.84448 54.1253 2.83248C52.8823 2.61748 51.6073 2.52848 50.3463 2.56748Z" fill="#72819C"/>
<path d="M17.5203 73.4324C17.5173 73.4314 17.5133 73.4314 17.5093 73.4314C13.9363 72.9894 10.5403 71.5814 7.68934 69.3574C7.59134 69.2824 7.56134 69.1464 7.61534 69.0374L8.70234 66.8464C8.76534 66.7204 8.91534 66.6654 9.04334 66.7224L21.8903 72.5224C21.9983 72.5714 22.0593 72.6854 22.0393 72.8024C22.0203 72.9174 21.9243 73.0074 21.8083 73.0204L17.5653 73.4334C17.5513 73.4324 17.5353 73.4334 17.5203 73.4324ZM8.17734 69.0754C10.9113 71.1624 14.1453 72.4834 17.5443 72.9084L20.7833 72.5954L9.05834 67.3014L8.17734 69.0754Z" fill="#72819C"/>
<path d="M18.3293 73.5154C18.0543 73.4934 17.7803 73.4644 17.5083 73.4314C17.3773 73.4154 17.2783 73.3014 17.2793 73.1694C17.2813 73.0344 17.3833 72.9244 17.5153 72.9114L21.7583 72.4994C21.8483 72.4924 21.9353 72.5284 21.9893 72.6004C22.0433 72.6704 22.0583 72.7634 22.0283 72.8474L21.8513 73.3364C21.8153 73.4334 21.7293 73.5004 21.6273 73.5084C20.5253 73.6014 19.4153 73.6024 18.3293 73.5154Z" fill="#72819C"/>
<path d="M21.7623 73.0195C21.7323 73.0165 21.7043 73.0095 21.6753 72.9975L8.8283 67.1985C8.7253 67.1515 8.6643 67.0455 8.6763 66.9315L10.6853 48.0405C10.6983 47.9225 10.7893 47.8285 10.9053 47.8105C11.0253 47.7935 11.1373 47.8535 11.1853 47.9635L22.0223 72.6545C22.0643 72.7545 22.0433 72.8695 21.9663 72.9435C21.9123 72.9995 21.8363 73.0255 21.7623 73.0195ZM9.2163 66.8005L21.2713 72.2405L11.1013 49.0725L9.2163 66.8005Z" fill="#72819C"/>
<path d="M21.7623 73.0193C21.6673 73.0113 21.5823 72.9513 21.5443 72.8633L10.7063 48.1723C10.6723 48.0953 10.6783 48.0033 10.7233 47.9313C10.7683 47.8573 10.8473 47.8113 10.9313 47.8063L33.9853 46.5703C34.0763 46.5663 34.1643 46.6093 34.2153 46.6843C34.2663 46.7623 34.2743 46.8583 34.2353 46.9413L22.0173 72.8673C21.9743 72.9603 21.8803 73.0203 21.7783 73.0183C21.7743 73.0203 21.7673 73.0193 21.7623 73.0193ZM11.3363 48.3093L21.7913 72.1293L33.5783 47.1163L11.3363 48.3093Z" fill="#72819C"/>
<path d="M21.6363 73.5035C21.5583 73.4965 21.4723 73.4635 21.4283 73.4035C21.3733 73.3345 21.3303 73.2425 21.3603 73.1575L21.5383 72.6705C21.5753 72.5705 21.6653 72.5035 21.7713 72.4985C21.8743 72.4945 21.9743 72.5525 22.0183 72.6445L22.2373 73.0975C22.2753 73.1745 22.2723 73.2645 22.2303 73.3395C22.1893 73.4125 22.1133 73.4625 22.0293 73.4705L21.6863 73.5025C21.6693 73.5045 21.6533 73.5045 21.6363 73.5035Z" fill="#72819C"/>
<path d="M33.7123 72.1584C33.6803 72.1554 33.6503 72.1464 33.6223 72.1334C33.5543 72.1034 33.5033 72.0434 33.4823 71.9724C33.2943 71.3344 33.1333 70.6744 33.0043 70.0124C32.9783 69.8744 33.0633 69.7404 33.1993 69.7064L44.7493 66.8934C44.8833 66.8584 45.0173 66.9364 45.0593 67.0624C45.1023 67.1904 45.0403 67.3324 44.9143 67.3854L33.8343 72.1394C33.7963 72.1554 33.7533 72.1614 33.7123 72.1584ZM33.5663 70.1544C33.6623 70.6234 33.7753 71.0874 33.9023 71.5414L41.8283 68.1414L33.5663 70.1544Z" fill="#72819C"/>
<path d="M21.9813 73.4714C21.8903 73.4644 21.8073 73.4094 21.7683 73.3254L21.5483 72.8724C21.5133 72.8014 21.5133 72.7194 21.5483 72.6474C21.5813 72.5774 21.6453 72.5244 21.7223 72.5054L29.4003 70.6334C29.5253 70.6024 29.6583 70.6704 29.7063 70.7914C29.7533 70.9144 29.7023 71.0524 29.5873 71.1144C27.3263 72.3594 24.8703 73.1444 22.2903 73.4474L22.0283 73.4694C22.0123 73.4744 21.9963 73.4734 21.9813 73.4714ZM26.9503 71.7684L22.1613 72.9364L22.2293 72.9294C23.8603 72.7394 25.4403 72.3484 26.9503 71.7684Z" fill="#72819C"/>
<path d="M21.7623 73.0193C21.6923 73.0133 21.6263 72.9793 21.5813 72.9223C21.5173 72.8453 21.5043 72.7383 21.5473 72.6473L33.7653 46.7203C33.8063 46.6313 33.8963 46.5733 33.9943 46.5723C34.0943 46.5713 34.1853 46.6223 34.2313 46.7113L45.0423 67.0233C45.0813 67.0933 45.0833 67.1783 45.0503 67.2523C45.0183 67.3273 44.9523 67.3813 44.8743 67.3993L33.3233 70.2133C33.2553 70.2313 33.1813 70.2203 33.1213 70.1803C33.0613 70.1433 33.0193 70.0813 33.0053 70.0123C32.9273 69.6143 32.8653 69.2473 32.8143 68.9013C31.8143 69.7413 30.7313 70.4883 29.5873 71.1163C29.5673 71.1293 29.5463 71.1373 29.5233 71.1423L21.8453 73.0133C21.8173 73.0193 21.7893 73.0213 21.7623 73.0193ZM34.0153 47.4153L22.2533 72.3763L29.3663 70.6423C30.6063 69.9573 31.7733 69.1313 32.8363 68.1933C32.9093 68.1283 33.0123 68.1113 33.1023 68.1453C33.1933 68.1793 33.2573 68.2623 33.2693 68.3583C33.3153 68.7543 33.3793 69.1753 33.4663 69.6423L44.4243 66.9713L34.0153 47.4153Z" fill="#72819C"/>
<path d="M62.6083 15.8394C62.5643 15.8364 62.5223 15.8214 62.4853 15.7974L56.8583 12.0734C56.7963 12.0334 56.7543 11.9674 56.7433 11.8924C56.7343 11.8184 56.7553 11.7434 56.8043 11.6864L65.7803 1.16043C65.8553 1.07143 65.9813 1.04443 66.0863 1.09243L66.1643 1.12543C66.1723 1.12943 66.1813 1.13343 66.1903 1.13643C67.0283 0.741431 67.9183 0.44543 68.8333 0.25543C68.9273 0.23643 69.0253 0.270431 69.0863 0.344431C69.1493 0.419431 69.1643 0.52143 69.1263 0.61043L62.8703 15.6794C62.8403 15.7514 62.7803 15.8074 62.7053 15.8294C62.6743 15.8374 62.6403 15.8424 62.6083 15.8394ZM57.3923 11.8014L62.5093 15.1874L68.4513 0.879431C67.7103 1.06743 66.9903 1.32843 66.3063 1.65943C66.2343 1.69443 66.1503 1.69343 66.0773 1.65943C66.0683 1.65443 66.0603 1.65043 66.0513 1.64743L57.3923 11.8014Z" fill="#72819C"/>
<path d="M56.9813 12.1155C56.9323 12.1115 56.8843 12.0945 56.8433 12.0625C56.7323 11.9775 56.7093 11.8215 56.7893 11.7075L64.4933 0.676508C64.5583 0.582508 64.6773 0.539506 64.7873 0.577506C65.2113 0.715506 65.6363 0.884508 66.0893 1.09351C66.1623 1.12851 66.2163 1.19451 66.2343 1.27451C66.2513 1.35451 66.2313 1.43751 66.1783 1.50051L57.2013 12.0255C57.1453 12.0925 57.0633 12.1225 56.9813 12.1155ZM64.8083 1.13551L60.3143 7.57051L65.5533 1.42751C65.3003 1.31551 65.0523 1.22051 64.8083 1.13551Z" fill="#72819C"/>
<path d="M110.286 18.1944C110.26 18.1924 110.233 18.1854 110.209 18.1744L104.721 15.9144C104.654 15.8874 104.601 15.8314 104.576 15.7614C104.55 15.6934 104.555 15.6154 104.591 15.5494L105.641 13.5804C105.702 13.4634 105.839 13.4144 105.963 13.4594C108.01 14.2364 109.68 15.8284 110.547 17.8284C110.59 17.9264 110.568 18.0394 110.493 18.1164C110.439 18.1724 110.361 18.2004 110.286 18.1944ZM105.186 15.5424L109.771 17.4304C108.942 15.9114 107.599 14.7004 105.992 14.0324L105.186 15.5424Z" fill="#72819C"/>
<path d="M121.446 34.9123C121.38 34.9073 121.317 34.8763 121.271 34.8243L104.625 15.8453C104.543 15.7533 104.536 15.6203 104.608 15.5213C104.677 15.4223 104.804 15.3873 104.919 15.4313L110.406 17.6903C110.469 17.7163 110.519 17.7663 110.546 17.8283C110.729 18.2503 110.874 18.6823 110.98 19.1143C114.188 20.6573 116.344 23.6743 116.757 27.2113C116.788 27.4733 116.808 27.7343 116.818 27.9943C119.294 29.4193 121.076 31.8153 121.721 34.5923C121.748 34.7083 121.693 34.8283 121.586 34.8833C121.543 34.9073 121.494 34.9163 121.446 34.9123ZM105.752 16.3403L120.879 33.5843C120.077 31.3893 118.503 29.5303 116.435 28.3793C116.355 28.3343 116.304 28.2493 116.3 28.1573C116.293 27.8653 116.275 27.5693 116.239 27.2733C115.842 23.8773 113.752 20.9823 110.646 19.5343C110.573 19.4993 110.52 19.4333 110.502 19.3563C110.408 18.9473 110.275 18.5363 110.108 18.1353L105.752 16.3403Z" fill="#72819C"/>
<path d="M7.82733 69.4114C7.77733 69.4074 7.72833 69.3894 7.68833 69.3564C5.45333 67.6134 3.58033 65.3684 2.27133 62.8624C2.21633 62.7584 2.23933 62.6284 2.32833 62.5494C2.41633 62.4694 2.54733 62.4594 2.64633 62.5254L9.08033 66.7434C9.19033 66.8164 9.22933 66.9594 9.17033 67.0774L8.08333 69.2684C8.04833 69.3374 7.98333 69.3884 7.90733 69.4064C7.88133 69.4124 7.85433 69.4144 7.82733 69.4114ZM3.24934 63.5434C4.42634 65.5204 5.96633 67.2994 7.75833 68.7474L8.60133 67.0524L3.24934 63.5434Z" fill="#72819C"/>
<path d="M8.9163 67.2214C8.8733 67.2184 8.8313 67.2024 8.7933 67.1794L2.3593 62.9614C2.3213 62.9364 2.2903 62.9034 2.2713 62.8624C1.2143 60.8454 0.517299 58.6654 0.198299 56.3864C0.182299 56.2694 0.246299 56.1554 0.354299 56.1094C0.462299 56.0624 0.587299 56.0944 0.660299 56.1854L9.1403 66.7974C9.2213 66.8984 9.2153 67.0414 9.1293 67.1364C9.0733 67.1974 8.9943 67.2274 8.9163 67.2214ZM2.7023 62.5614L7.7123 65.8434L0.879299 57.2924C1.2303 59.1364 1.8433 60.9044 2.7023 62.5614Z" fill="#72819C"/>
<path d="M91.3613 24.4833C91.3123 24.4793 91.2653 24.4603 91.2243 24.4303C91.1373 24.3643 91.1003 24.2513 91.1333 24.1473L94.2923 13.7183C94.3313 13.5913 94.4583 13.5113 94.5893 13.5363L104.867 15.4173C104.972 15.4363 105.056 15.5193 105.077 15.6243C105.097 15.7283 105.05 15.8353 104.96 15.8933L91.5223 24.4413C91.4733 24.4733 91.4173 24.4873 91.3613 24.4833ZM94.7263 14.0913L91.8373 23.6243L104.118 15.8113L94.7263 14.0913Z" fill="#72819C"/>
<path d="M94.5223 14.0545C94.4803 14.0515 94.4403 14.0385 94.4043 14.0155C94.3383 13.9715 94.2933 13.9035 94.2843 13.8245L93.4423 6.6215C93.4283 6.5045 93.4953 6.3935 93.6033 6.3495C93.7113 6.3065 93.8363 6.3405 93.9083 6.4325L93.9463 6.4795C97.1863 6.5395 100.034 8.4945 101.281 11.4625C101.31 11.5275 101.308 11.6035 101.279 11.6695C101.249 11.7345 101.194 11.7845 101.127 11.8095L94.6293 14.0415C94.5943 14.0525 94.5573 14.0575 94.5223 14.0545ZM94.0123 7.0025L94.7653 13.4415L100.687 11.4065C99.4773 8.7955 96.9123 7.0835 94.0123 7.0025Z" fill="#72819C"/>
<path d="M104.8 15.9353C104.791 15.9343 104.782 15.9333 104.774 15.9313L94.4973 14.0513C94.3663 14.0273 94.2753 13.9083 94.2853 13.7753C94.2953 13.6433 94.4033 13.5393 94.5363 13.5343L105.101 13.1963C105.126 13.1943 105.153 13.1983 105.177 13.2043C105.428 13.2713 105.687 13.3553 105.964 13.4623C106.033 13.4883 106.09 13.5433 106.115 13.6143C106.14 13.6833 106.136 13.7613 106.1 13.8273L105.051 15.7973C105.003 15.8893 104.902 15.9433 104.8 15.9353ZM96.9913 13.9763L104.679 15.3843L105.497 13.8463C105.359 13.7993 105.22 13.7553 105.078 13.7173L96.9913 13.9763Z" fill="#72819C"/>
<path d="M94.5223 14.0545C94.4063 14.0455 94.3073 13.9585 94.2863 13.8415C94.2633 13.7145 94.3363 13.5895 94.4583 13.5465L100.957 11.3155C101.085 11.2715 101.23 11.3345 101.281 11.4625C101.501 11.9805 101.664 12.5105 101.769 13.0395C101.888 13.0175 102.008 12.9985 102.13 12.9835C103.153 12.8645 104.19 12.9395 105.177 13.2035C105.301 13.2365 105.382 13.3565 105.368 13.4855C105.352 13.6145 105.246 13.7125 105.116 13.7165L94.5503 14.0555C94.5423 14.0565 94.5323 14.0555 94.5223 14.0545ZM100.892 11.8885L96.2673 13.4775L101.289 13.3155C101.207 12.8395 101.073 12.3625 100.892 11.8885Z" fill="#72819C"/>
<path d="M62.6083 15.8393C62.5333 15.8333 62.4653 15.7963 62.4203 15.7353C62.3653 15.6613 62.3523 15.5643 62.3883 15.4793L68.6453 0.411315C68.6773 0.330315 68.7493 0.272313 68.8333 0.255313C69.1853 0.184313 69.5323 0.127314 69.8663 0.087314C72.3203 -0.196686 74.7853 0.281312 76.9453 1.46631C76.9853 1.47931 77.0233 1.50131 77.0513 1.53231L87.6623 12.8203C87.7313 12.8923 87.7523 12.9963 87.7183 13.0903C87.6843 13.1833 87.5993 13.2483 87.5003 13.2593L62.6543 15.8393C62.6403 15.8403 62.6243 15.8403 62.6083 15.8393ZM69.0743 0.738315L63.0383 15.2743L86.9223 12.7923L76.7113 1.93232C74.6413 0.793315 72.2813 0.331315 69.9263 0.606315C69.6523 0.637315 69.3643 0.683315 69.0743 0.738315Z" fill="#72819C"/>
<path d="M79.4343 23.7685C79.4043 23.7665 79.3733 23.7575 79.3433 23.7445L62.5173 15.8155C62.4123 15.7645 62.3533 15.6505 62.3713 15.5355C62.3913 15.4195 62.4853 15.3315 62.6023 15.3195L87.4483 12.7385C87.5503 12.7275 87.6523 12.7795 87.7023 12.8705C87.7533 12.9615 87.7463 13.0735 87.6833 13.1575L79.6623 23.6665C79.6073 23.7395 79.5203 23.7755 79.4343 23.7685ZM63.5883 15.7415L79.3763 23.1825L86.9013 13.3205L63.5883 15.7415Z" fill="#72819C"/>
<path d="M87.4543 13.2575C87.3913 13.2525 87.3303 13.2245 87.2843 13.1755L76.6733 1.8885C76.6113 1.8245 76.5883 1.7335 76.6103 1.6465C76.6303 1.5615 76.6933 1.4915 76.7763 1.4625C77.3503 1.2635 77.9343 1.1265 78.5123 1.0575C80.3403 0.845502 82.2053 1.2675 83.7603 2.2335L83.8073 2.2255C85.3663 2.0445 86.9363 2.3185 88.3463 3.0155C88.4413 3.0615 88.4983 3.1625 88.4913 3.2695L87.7343 13.0165C87.7263 13.1205 87.6593 13.2095 87.5603 13.2435C87.5273 13.2555 87.4903 13.2605 87.4543 13.2575ZM77.3363 1.8335L87.2613 12.3895L87.9573 3.4075C86.6793 2.8115 85.2683 2.5805 83.8683 2.7455C83.8653 2.7455 83.7463 2.7665 83.7403 2.7675C83.6803 2.7765 83.6173 2.7615 83.5663 2.7275C82.0933 1.7865 80.3143 1.3735 78.5733 1.5775C78.1643 1.6265 77.7473 1.7125 77.3363 1.8335Z" fill="#72819C"/>
<path d="M79.4344 23.7683C79.3394 23.7603 79.2574 23.7023 79.2174 23.6163C79.1764 23.5293 79.1904 23.4263 79.2464 23.3493L87.2674 12.8393C87.3254 12.7633 87.4144 12.7193 87.5154 12.7403C87.6114 12.7563 87.6904 12.8213 87.7204 12.9123L91.6284 24.1363C91.6584 24.2193 91.6424 24.3103 91.5904 24.3803C91.5374 24.4493 91.4534 24.4883 91.3664 24.4843L79.4374 23.7703C79.4374 23.7703 79.4364 23.7683 79.4344 23.7683ZM87.3884 13.5413L79.9614 23.2773L91.0084 23.9383L87.3884 13.5413Z" fill="#72819C"/>
<path d="M91.3614 24.4835C91.2584 24.4755 91.1714 24.4065 91.1364 24.3075L87.2274 13.0835C87.1994 12.9985 87.2144 12.9055 87.2704 12.8355C87.3274 12.7655 87.4094 12.7315 87.5034 12.7375L94.5724 13.5325C94.6484 13.5425 94.7184 13.5855 94.7604 13.6505C94.8014 13.7145 94.8154 13.7955 94.7914 13.8675L91.6304 24.2975C91.5984 24.4055 91.4994 24.4805 91.3864 24.4835C91.3784 24.4825 91.3704 24.4835 91.3614 24.4835ZM87.8574 13.3035L91.3654 23.3795L94.2024 14.0185L87.8574 13.3035Z" fill="#72819C"/>
<path d="M94.5223 14.0544C94.5193 14.0544 94.5163 14.0544 94.5133 14.0544L87.4453 13.2584C87.3043 13.2434 87.2033 13.1194 87.2143 12.9794L87.9723 3.23145C87.9793 3.14445 88.0293 3.06745 88.1043 3.02445C88.1773 2.98145 88.2703 2.97945 88.3473 3.01745C88.6223 3.15345 88.8463 3.27645 89.0513 3.40245C90.9743 3.78445 92.6973 4.85944 93.9073 6.43144C93.9363 6.46844 93.9543 6.51445 93.9603 6.56045L94.8033 13.7644C94.8133 13.8434 94.7843 13.9224 94.7283 13.9794C94.6753 14.0314 94.5983 14.0604 94.5223 14.0544ZM87.7543 12.7674L94.2453 13.4974L93.4503 6.69245C92.3083 5.23845 90.6983 4.24945 88.9043 3.90445C88.8733 3.89745 88.8423 3.88545 88.8143 3.86745C88.7003 3.79545 88.5813 3.72545 88.4603 3.65945L87.7543 12.7674Z" fill="#72819C"/>
<path d="M87.8283 103.365C87.7243 103.356 87.6323 103.287 87.5993 103.182C86.6383 100.107 85.4483 97.2764 84.0573 94.7654C82.1993 93.4694 80.6853 91.7064 79.6763 89.6634C79.6493 89.6064 79.6433 89.5434 79.6583 89.4824L83.8853 73.1864C83.9103 73.0824 84.0003 73.0054 84.1093 72.9944C84.2183 72.9854 84.3203 73.0384 84.3703 73.1344L98.0743 99.6514C98.0963 99.6934 98.1063 99.7424 98.1023 99.7924L98.0793 100.094C98.0723 100.202 97.9993 100.294 97.8943 100.323L87.9243 103.355C87.8923 103.364 87.8603 103.368 87.8283 103.365ZM80.1883 89.5184C81.1673 91.4654 82.6223 93.1404 84.4043 94.3714C84.4363 94.3944 84.4653 94.4244 84.4843 94.4614C85.8663 96.9484 87.0553 99.7464 88.0193 102.779L97.5723 99.8774L97.5763 99.8234L84.2193 73.9784L80.1883 89.5184Z" fill="#72819C"/>
<path d="M90.8304 123.997C90.7664 123.991 90.7054 123.961 90.6604 123.911L90.5864 123.833C90.5424 123.785 90.5174 123.723 90.5174 123.659C90.4574 116.076 89.4754 109.188 87.6004 103.182C87.5794 103.116 87.5864 103.043 87.6204 102.982C87.6504 102.922 87.7064 102.875 87.7734 102.855L97.7444 99.8254C97.8264 99.8004 97.9154 99.8164 97.9834 99.8724C98.0494 99.9264 98.0874 100.01 98.0794 100.096C98.0654 100.299 98.0514 100.504 98.0384 100.709L91.1024 123.813C91.0764 123.903 91.0024 123.969 90.9114 123.99C90.8844 123.995 90.8564 123.999 90.8304 123.997ZM88.1764 103.277C89.9044 108.905 90.8594 115.289 91.0184 122.276L97.5264 100.617C97.5274 100.563 97.5304 100.502 97.5354 100.434L88.1764 103.277Z" fill="#72819C"/>
<path d="M97.8224 100.031C97.7324 100.023 97.6524 99.9713 97.6114 99.8903L83.9064 73.3723C83.8434 73.2533 83.8854 73.1023 84.0004 73.0313C84.1164 72.9593 84.2694 72.9893 84.3504 73.0993L100.403 95.2343C100.459 95.3113 100.468 95.4143 100.427 95.5003L100.092 96.1983C100.035 96.3183 99.8974 96.3803 99.7704 96.3313C99.3414 96.1793 98.9474 96.0183 98.5744 95.8473C98.3764 97.0553 98.2194 98.3553 98.1104 99.7093C98.1164 99.7363 98.1194 99.7643 98.1174 99.7923C98.1054 99.9373 97.9694 100.016 97.8294 100.03C97.8264 100.031 97.8244 100.031 97.8224 100.031ZM85.9614 76.2113L97.6624 98.8513C97.7774 97.6503 97.9304 96.4993 98.1154 95.4183C98.1314 95.3373 98.1824 95.2673 98.2554 95.2303C98.3294 95.1923 98.4163 95.1903 98.4893 95.2303C98.8743 95.4203 99.2793 95.5953 99.7243 95.7603L99.8874 95.4163L85.9614 76.2113Z" fill="#72819C"/>
<path d="M90.8304 123.997C90.7634 123.991 90.6974 123.959 90.6524 123.906C90.5944 123.838 90.5774 123.746 90.6014 123.662L97.5254 100.617C97.5634 100.49 97.6824 100.416 97.8224 100.434C97.9534 100.458 98.0454 100.576 98.0374 100.708C97.4954 109.119 98.7174 118.044 99.4914 122.614C99.5044 122.684 99.4874 122.756 99.4444 122.811C99.4034 122.869 99.3394 122.906 99.2674 122.916L90.8844 123.993C90.8674 123.998 90.8484 123.998 90.8304 123.997ZM97.4154 102.8L91.2174 123.425L98.9324 122.434C98.2194 118.164 97.1784 110.442 97.4154 102.8Z" fill="#72819C"/>
<path d="M103.182 97.0663C102.024 96.9713 100.874 96.7243 99.7693 96.3323C99.7003 96.3083 99.6433 96.2543 99.6153 96.1863C99.5883 96.1173 99.5913 96.0413 99.6223 95.9733L99.9553 95.2763C100.002 95.1783 100.103 95.1203 100.212 95.1293L108.672 95.8353C108.795 95.8453 108.894 95.9393 108.909 96.0623C108.925 96.1843 108.852 96.3013 108.736 96.3413C107.794 96.6743 106.806 96.9043 105.805 97.0203C104.935 97.1203 104.052 97.1373 103.182 97.0663ZM100.219 95.9343C101.199 96.2583 102.207 96.4643 103.225 96.5463C104.061 96.6143 104.909 96.5983 105.746 96.5013C106.249 96.4413 106.746 96.3543 107.236 96.2383L100.348 95.6633L100.219 95.9343Z" fill="#72819C"/>
<path d="M39.3843 81.4395C39.3253 81.4345 39.2703 81.4105 39.2253 81.3665C38.1833 80.3785 37.2373 79.2745 36.4113 78.0865C36.3533 78.0005 36.3503 77.8885 36.4033 77.8015C36.4553 77.7135 36.5623 77.6795 36.6583 77.6775L43.6133 78.5495C43.7253 78.5645 43.8153 78.6485 43.8363 78.7575C43.8583 78.8685 43.8073 78.9815 43.7103 79.0355L39.5343 81.4055C39.4873 81.4325 39.4343 81.4435 39.3843 81.4395ZM37.1863 78.2685C37.8683 79.1935 38.6253 80.0605 39.4453 80.8575L42.7673 78.9705L37.1863 78.2685Z" fill="#72819C"/>
<path d="M47.9083 86.3844C47.8913 86.3834 47.8723 86.3804 47.8553 86.3744C44.6443 85.4174 41.6603 83.6864 39.2253 81.3664C39.1643 81.3104 39.1363 81.2284 39.1443 81.1474C39.1553 81.0644 39.2043 80.9924 39.2763 80.9524L43.4503 78.5824C43.5733 78.5124 43.7313 78.5534 43.8043 78.6764L48.1533 85.9914C48.2083 86.0834 48.2003 86.2014 48.1343 86.2854C48.0803 86.3544 47.9953 86.3924 47.9083 86.3844ZM39.8423 81.2304C42.0013 83.2154 44.5803 84.7394 47.3553 85.6684L43.4863 79.1614L39.8423 81.2304Z" fill="#72819C"/>
<path d="M91.6013 72.3143C91.5843 72.3133 91.5673 72.3093 91.5513 72.3043C91.4673 72.2833 91.4013 72.2163 91.3743 72.1363L83.3133 47.6073C83.2823 47.5083 83.3093 47.4013 83.3843 47.3333C83.4603 47.2643 83.5683 47.2443 83.6633 47.2853L108.422 57.8563C108.506 57.8923 108.565 57.9683 108.578 58.0593C108.59 58.1493 108.557 58.2383 108.487 58.2973L91.7883 72.2563C91.7383 72.2983 91.6703 72.3203 91.6013 72.3143ZM83.9913 47.9923L91.7513 71.6093L107.827 58.1693L83.9913 47.9923Z" fill="#72819C"/>
<path d="M108.301 58.3575C108.273 58.3545 108.246 58.3475 108.219 58.3375L83.4604 47.7665C83.3554 47.7215 83.2934 47.6155 83.3024 47.5025C83.3144 47.3895 83.3954 47.2955 83.5054 47.2715L101.526 43.2155C101.646 43.1915 101.768 43.2505 101.819 43.3625L108.559 57.9865C108.604 58.0845 108.584 58.2015 108.508 58.2765C108.453 58.3345 108.377 58.3635 108.301 58.3575ZM84.4084 47.6025L107.802 57.5915L101.435 43.7725L84.4084 47.6025Z" fill="#72819C"/>
<path d="M99.6773 74.7763C99.6593 74.7753 99.6393 74.7713 99.6223 74.7663L91.5473 72.3043C91.4553 72.2753 91.3873 72.2004 91.3663 72.1044C91.3473 72.0114 91.3823 71.9164 91.4563 71.8534L108.154 57.8954C108.251 57.8154 108.389 57.8143 108.485 57.8933C108.582 57.9703 108.61 58.1063 108.552 58.2173L99.9283 74.6373C99.8793 74.7313 99.7793 74.7853 99.6773 74.7763ZM92.1593 71.9443L99.5663 74.2053L107.478 59.1423L92.1593 71.9443Z" fill="#72819C"/>
<path d="M99.6773 74.7765C99.6143 74.7715 99.5553 74.7455 99.5123 74.6975C99.4313 74.6185 99.4143 74.4965 99.4673 74.3955L108.09 57.9755C108.147 57.8695 108.268 57.8165 108.384 57.8425C108.499 57.8705 108.582 57.9745 108.583 58.0945L108.706 70.2465C108.707 70.3475 108.648 70.4395 108.559 70.4845L99.8133 74.7505C99.7693 74.7725 99.7233 74.7805 99.6773 74.7765ZM108.071 59.1355L100.299 73.9325L108.183 70.0865L108.071 59.1355Z" fill="#72819C"/>
<path d="M108.301 58.3573C108.209 58.3503 108.125 58.2933 108.085 58.2053L101.347 43.5803C101.304 43.4903 101.319 43.3823 101.382 43.3053L104.651 39.3543C104.716 39.2753 104.817 39.2393 104.919 39.2693C105.016 39.2943 105.091 39.3733 105.11 39.4733L108.58 58.0503C108.604 58.1783 108.527 58.3063 108.403 58.3453C108.367 58.3553 108.334 58.3603 108.301 58.3573ZM101.889 43.5103L107.679 56.0783L104.697 40.1163L101.889 43.5103Z" fill="#72819C"/>
<path d="M108.301 58.3573C108.275 58.3553 108.248 58.3483 108.222 58.3373C108.141 58.3033 108.082 58.2323 108.066 58.1443L104.596 39.5693C104.578 39.4753 104.613 39.3813 104.686 39.3213C104.756 39.2603 104.858 39.2443 104.945 39.2773L124.474 46.7273C124.565 46.7633 124.628 46.8453 124.64 46.9393C124.653 47.0363 124.609 47.1303 124.53 47.1863L108.47 58.3123C108.42 58.3463 108.36 58.3623 108.301 58.3573ZM105.194 39.9303L108.504 57.6513L123.825 47.0373L105.194 39.9303Z" fill="#72819C"/>
<path d="M108.424 70.5103C108.289 70.4993 108.185 70.3873 108.184 70.2523L108.062 58.1003C108.06 57.9963 108.12 57.9033 108.212 57.8593C108.306 57.8163 108.416 57.8313 108.493 57.9003L123.478 70.9103C123.564 70.9823 123.592 71.1023 123.55 71.2063C123.507 71.3093 123.405 71.3753 123.292 71.3683L108.429 70.5123C108.428 70.5103 108.426 70.5103 108.424 70.5103ZM108.589 58.6733L108.704 70.0033L122.559 70.8023L108.589 58.6733Z" fill="#72819C"/>
<path d="M123.288 71.3664C123.233 71.3624 123.181 71.3414 123.138 71.3044L108.152 58.2924C108.087 58.2374 108.053 58.1534 108.062 58.0684C108.072 57.9824 108.122 57.9074 108.195 57.8664L125.72 48.1924C125.806 48.1464 125.911 48.1484 125.992 48.2034C126.072 48.2574 126.117 48.3524 126.105 48.4494L124.5 62.7864C124.492 62.8654 124.448 62.9354 124.382 62.9774C123.775 63.3614 123.122 63.6484 122.439 63.8344C123.064 64.5914 123.61 65.4274 124.064 66.3224C124.086 66.3674 124.096 66.4184 124.09 66.4684L123.569 71.1334C123.557 71.2294 123.493 71.3114 123.403 71.3464C123.366 71.3634 123.327 71.3694 123.288 71.3664ZM108.775 58.1434L123.103 70.5834L123.564 66.4904C123.069 65.5314 122.467 64.6444 121.768 63.8524C121.706 63.7834 121.687 63.6864 121.717 63.5964C121.746 63.5084 121.821 63.4434 121.911 63.4244C122.646 63.2734 123.347 62.9964 123.996 62.6034L125.53 48.8924L108.775 58.1434Z" fill="#72819C"/>
<path d="M108.301 58.3575C108.221 58.3515 108.146 58.3075 108.101 58.2335C108.028 58.1155 108.059 57.9605 108.173 57.8815L124.232 46.7555C124.337 46.6835 124.474 46.6965 124.565 46.7845L126.031 48.2355C126.089 48.2935 126.118 48.3755 126.105 48.4575C126.094 48.5385 126.045 48.6095 125.973 48.6505L108.448 58.3245C108.402 58.3505 108.35 58.3615 108.301 58.3575ZM124.351 47.3095L112.696 55.3845L125.415 48.3615L124.351 47.3095Z" fill="#72819C"/>
<path d="M124.221 63.0183C124.18 63.0153 124.141 63.0023 124.104 62.9793C124.018 62.9263 123.973 62.8293 123.984 62.7283L125.587 48.3923C125.598 48.2953 125.663 48.2113 125.755 48.1773L126.859 47.7603C126.987 47.7133 127.135 47.7713 127.19 47.8993C127.481 48.5583 127.669 49.2443 127.751 49.9383C127.911 51.3183 127.673 52.6953 127.061 53.9333C127.382 54.6253 127.59 55.3543 127.676 56.1003C127.994 58.8163 126.701 61.5183 124.382 62.9813C124.333 63.0113 124.276 63.0233 124.221 63.0183ZM126.088 48.6093L124.565 62.2163C126.423 60.8103 127.43 58.4903 127.157 56.1573C127.073 55.4283 126.864 54.7173 126.535 54.0433C126.5 53.9693 126.501 53.8833 126.539 53.8093C127.146 52.6333 127.385 51.3163 127.232 49.9983C127.165 49.4353 127.023 48.8773 126.807 48.3363L126.088 48.6093Z" fill="#72819C"/>
<path d="M123.288 71.3664C123.267 71.3644 123.243 71.3604 123.223 71.3514C123.108 71.3114 123.035 71.1984 123.049 71.0764L123.572 66.4134C123.585 66.2974 123.673 66.2054 123.787 66.1844C123.902 66.1634 124.013 66.2224 124.065 66.3264L124.152 66.4914C124.5 67.2004 124.789 67.9594 125.011 68.7414C125.032 68.8124 125.02 68.8894 124.981 68.9524L123.529 71.2464C123.475 71.3304 123.382 71.3744 123.288 71.3664ZM123.987 67.3924L123.694 70.0094L124.477 68.7734C124.339 68.2994 124.175 67.8384 123.987 67.3924Z" fill="#72819C"/>
<path d="M124.721 76.3455C124.614 76.3365 124.521 76.2635 124.492 76.1575L123.058 71.1795C123.037 71.1075 123.047 71.0315 123.088 70.9675L124.539 68.6735C124.594 68.5875 124.7 68.5405 124.797 68.5555C124.9 68.5705 124.983 68.6415 125.011 68.7425C125.701 71.1705 125.695 73.7345 124.992 76.1585C124.96 76.2715 124.858 76.3465 124.741 76.3475C124.734 76.3465 124.728 76.3465 124.721 76.3455ZM123.591 71.1475L124.725 75.0815C125.116 73.2265 125.096 71.3105 124.659 69.4605L123.591 71.1475Z" fill="#72819C"/>
<path d="M125.825 48.6815C125.735 48.6745 125.651 48.6195 125.609 48.5315C125.552 48.4075 125.599 48.2595 125.719 48.1945L126.758 47.6165C126.821 47.5805 126.895 47.5735 126.965 47.5955C127.032 47.6185 127.089 47.6675 127.12 47.7315C127.137 47.7655 127.151 47.8005 127.164 47.8365C127.193 47.9015 127.206 48.0065 127.179 48.0735C127.152 48.1405 127.111 48.2215 127.041 48.2465L125.938 48.6655C125.901 48.6795 125.862 48.6855 125.825 48.6815Z" fill="#72819C"/>
<path d="M25.1293 13.5593C25.0233 13.5513 24.9283 13.4753 24.8983 13.3673C24.8633 13.2323 24.9393 13.0933 25.0713 13.0503L25.2623 12.9873C25.3413 12.9603 25.4203 12.9333 25.5003 12.9083C26.1273 12.1473 26.8353 11.4143 27.6063 10.7273C27.6703 10.6683 27.7603 10.6493 27.8453 10.6693L31.6053 11.6593C31.7223 11.6903 31.8023 11.7973 31.7993 11.9183C31.7973 12.0383 31.7123 12.1413 31.5953 12.1683L25.2053 13.5543C25.1813 13.5603 25.1553 13.5613 25.1293 13.5593ZM27.8493 11.2113C27.2933 11.7123 26.7713 12.2403 26.2913 12.7853L30.4213 11.8893L27.8493 11.2113Z" fill="#72819C"/>
<path d="M16.7653 18.8384C16.6903 18.8324 16.6193 18.7944 16.5743 18.7304C16.5013 18.6294 16.5113 18.4904 16.5963 18.3994C18.9163 15.9264 21.8473 14.0774 25.0713 13.0514L31.4843 11.6594C31.6163 11.6294 31.7453 11.7054 31.7883 11.8324C31.8303 11.9604 31.7683 12.0974 31.6463 12.1524L16.8943 18.8164C16.8523 18.8344 16.8083 18.8414 16.7653 18.8384ZM29.1823 12.6924L25.2053 13.5544C22.5443 14.4014 20.0743 15.8404 18.0023 17.7424L29.1823 12.6924Z" fill="#72819C"/>
<path d="M51.8363 30.1743C51.7543 31.1803 50.8733 31.9283 49.8663 31.8473C48.8613 31.7663 48.1113 30.8853 48.1933 29.8793C48.2753 28.8723 49.1573 28.1243 50.1623 28.2063C51.1683 28.2873 51.9183 29.1683 51.8363 30.1743Z" fill="#72819C"/>
<path d="M49.8243 32.3683C48.5343 32.2643 47.5693 31.1273 47.6743 29.8363C47.7783 28.5463 48.9143 27.5803 50.2043 27.6853C51.4963 27.7903 52.4603 28.9263 52.3553 30.2163C52.2513 31.5073 51.1163 32.4733 49.8243 32.3683ZM50.1203 28.7263C49.4033 28.6683 48.7723 29.2043 48.7143 29.9213C48.6563 30.6383 49.1923 31.2683 49.9093 31.3263C50.6263 31.3853 51.2583 30.8493 51.3163 30.1323C51.3743 29.4143 50.8373 28.7843 50.1203 28.7263Z" fill="#72819C"/>
<path d="M64.4513 15.7262C64.3703 16.7332 63.4883 17.4822 62.4813 17.4002C61.4753 17.3182 60.7263 16.4372 60.8083 15.4302C60.8903 14.4252 61.7703 13.6762 62.7773 13.7572C63.7833 13.8392 64.5333 14.7212 64.4513 15.7262Z" fill="#72819C"/>
<path d="M62.4393 17.9203C61.1483 17.8163 60.1843 16.6803 60.2893 15.3883C60.3943 14.0973 61.5283 13.1333 62.8193 13.2383C64.1103 13.3433 65.0763 14.4773 64.9713 15.7683C64.8673 17.0603 63.7303 18.0253 62.4393 17.9203ZM62.7353 14.2773C62.0173 14.2193 61.3863 14.7553 61.3283 15.4723C61.2703 16.1893 61.8063 16.8213 62.5233 16.8793C63.2403 16.9383 63.8713 16.4013 63.9303 15.6833C63.9893 14.9663 63.4523 14.3353 62.7353 14.2773Z" fill="#72819C"/>
<path d="M58.3623 12.2223C58.3093 12.8693 57.7433 13.3503 57.0963 13.2973C56.4503 13.2453 55.9693 12.6793 56.0223 12.0323C56.0743 11.3853 56.6403 10.9033 57.2863 10.9553C57.9333 11.0083 58.4143 11.5753 58.3623 12.2223Z" fill="#72819C"/>
<path d="M57.0553 13.8164C56.1233 13.7404 55.4263 12.9214 55.5013 11.9894C55.5773 11.0564 56.3973 10.3594 57.3293 10.4354C58.2613 10.5104 58.9593 11.3314 58.8833 12.2644C58.8073 13.1964 57.9863 13.8924 57.0553 13.8164ZM57.2453 11.4764C56.8873 11.4474 56.5713 11.7154 56.5423 12.0744C56.5133 12.4324 56.7813 12.7484 57.1403 12.7774C57.4993 12.8064 57.8153 12.5384 57.8443 12.1794C57.8723 11.8204 57.6033 11.5054 57.2453 11.4764Z" fill="#72819C"/>
<path d="M95.9404 13.8313C95.8764 14.6213 95.1834 15.2103 94.3934 15.1453C93.6034 15.0813 93.0154 14.3883 93.0794 13.5983C93.1434 12.8063 93.8363 12.2193 94.6253 12.2833C95.4163 12.3483 96.0044 13.0393 95.9404 13.8313Z" fill="#72819C"/>
<path d="M94.3503 15.6663C93.2753 15.5793 92.4703 14.6313 92.5573 13.5563C92.6443 12.4803 93.5913 11.6753 94.6673 11.7623C95.7433 11.8493 96.5473 12.7963 96.4603 13.8723C96.3743 14.9493 95.4283 15.7543 94.3503 15.6663ZM94.5833 12.8043C94.0823 12.7633 93.6413 13.1403 93.6013 13.6423C93.5603 14.1433 93.9353 14.5843 94.4363 14.6253C94.9383 14.6663 95.3813 14.2913 95.4213 13.7893C95.4623 13.2873 95.0853 12.8443 94.5833 12.8043Z" fill="#72819C"/>
<path d="M89.2952 13.1453C89.2142 14.1503 88.3332 14.9003 87.3272 14.8183C86.3212 14.7363 85.5712 13.8553 85.6522 12.8503C85.7342 11.8443 86.6172 11.0943 87.6232 11.1763C88.6282 11.2573 89.3772 12.1393 89.2952 13.1453Z" fill="#72819C"/>
<path d="M87.2853 15.3394C85.9933 15.2344 85.0293 14.0994 85.1343 12.8084C85.2383 11.5164 86.3733 10.5524 87.6653 10.6564C88.9553 10.7614 89.9213 11.8964 89.8153 13.1884C89.7113 14.4794 88.5753 15.4434 87.2853 15.3394ZM87.5803 11.6964C86.8633 11.6384 86.2313 12.1754 86.1743 12.8924C86.1153 13.6104 86.6533 14.2414 87.3693 14.2994C88.0873 14.3574 88.7173 13.8204 88.7753 13.1034C88.8333 12.3864 88.2983 11.7554 87.5803 11.6964Z" fill="#72819C"/>
<path d="M81.2773 23.6554C81.1953 24.6624 80.3133 25.4104 79.3073 25.3294C78.3013 25.2474 77.5523 24.3664 77.6343 23.3594C77.7163 22.3544 78.5963 21.6064 79.6033 21.6874C80.6093 21.7694 81.3583 22.6504 81.2773 23.6554Z" fill="#72819C"/>
<path d="M79.2653 25.8505C77.9743 25.7455 77.0083 24.6095 77.1143 23.3185C77.2183 22.0275 78.3543 21.0635 79.6453 21.1685C80.9363 21.2725 81.9013 22.4085 81.7963 23.6985C81.6923 24.9885 80.5573 25.9555 79.2653 25.8505ZM79.5613 22.2075C78.8433 22.1485 78.2133 22.6855 78.1553 23.4025C78.0973 24.1205 78.6333 24.7505 79.3503 24.8085C80.0663 24.8665 80.6973 24.3315 80.7543 23.6135C80.8133 22.8955 80.2783 22.2655 79.5613 22.2075Z" fill="#72819C"/>
<path d="M85.3724 47.1684C85.2904 48.1734 84.4094 48.9234 83.4034 48.8414C82.3974 48.7604 81.6484 47.8784 81.7294 46.8724C81.8114 45.8664 82.6934 45.1174 83.6984 45.1984C84.7054 45.2804 85.4534 46.1624 85.3724 47.1684Z" fill="#72819C"/>
<path d="M83.3613 49.3605C82.0693 49.2565 81.1053 48.1215 81.2103 46.8305C81.3143 45.5395 82.4493 44.5735 83.7413 44.6785C85.0323 44.7825 85.9973 45.9195 85.8923 47.2105C85.7883 48.5025 84.6523 49.4655 83.3613 49.3605ZM83.6563 45.7195C82.9393 45.6615 82.3083 46.1975 82.2503 46.9145C82.1923 47.6315 82.7283 48.2625 83.4453 48.3205C84.1623 48.3785 84.7943 47.8425 84.8523 47.1255C84.9103 46.4085 84.3743 45.7775 83.6563 45.7195Z" fill="#72819C"/>
<path d="M109.889 58.0613C109.807 59.0663 108.925 59.8153 107.92 59.7333C106.913 59.6523 106.165 58.7713 106.246 57.7663C106.328 56.7593 107.209 56.0103 108.215 56.0923C109.221 56.1733 109.971 57.0543 109.889 58.0613Z" fill="#72819C"/>
<path d="M107.878 60.2554C106.587 60.1504 105.622 59.0144 105.727 57.7244C105.832 56.4324 106.967 55.4674 108.259 55.5714C109.549 55.6764 110.513 56.8124 110.408 58.1044C110.304 59.3944 109.169 60.3594 107.878 60.2554ZM108.174 56.6124C107.457 56.5544 106.825 57.0904 106.767 57.8084C106.709 58.5264 107.246 59.1564 107.963 59.2144C108.68 59.2724 109.311 58.7374 109.369 58.0204C109.427 57.3014 108.891 56.6714 108.174 56.6124Z" fill="#72819C"/>
<path d="M106.685 39.9943C106.603 41.0003 105.722 41.7493 104.716 41.6673C103.709 41.5863 102.96 40.7043 103.042 39.6983C103.123 38.6933 104.004 37.9443 105.012 38.0253C106.018 38.1073 106.766 38.9883 106.685 39.9943Z" fill="#72819C"/>
<path d="M104.675 42.1874C103.384 42.0824 102.418 40.9474 102.524 39.6564C102.628 38.3644 103.764 37.4004 105.055 37.5054C106.345 37.6094 107.311 38.7444 107.206 40.0364C107.101 41.3274 105.965 42.2924 104.675 42.1874ZM104.971 38.5454C104.252 38.4864 103.622 39.0234 103.564 39.7404C103.506 40.4584 104.042 41.0894 104.76 41.1474C105.476 41.2054 106.107 40.6694 106.164 39.9524C106.223 39.2344 105.687 38.6034 104.971 38.5454Z" fill="#72819C"/>
<path d="M67.9734 40.2982C67.8924 41.3052 67.0124 42.0542 66.0054 41.9722C64.9994 41.8902 64.2514 41.0102 64.3324 40.0022C64.4144 38.9972 65.2944 38.2492 66.3014 38.3302C67.3074 38.4122 68.0554 39.2932 67.9734 40.2982Z" fill="#72819C"/>
<path d="M65.9633 42.4933C64.6723 42.3883 63.7063 41.2523 63.8113 39.9613C63.9153 38.6703 65.0523 37.7063 66.3433 37.8113C67.6343 37.9163 68.6003 39.0513 68.4953 40.3413C68.3903 41.6323 67.2533 42.5983 65.9633 42.4933ZM66.2583 38.8513C65.5413 38.7933 64.9093 39.3283 64.8513 40.0453C64.7933 40.7643 65.3303 41.3943 66.0473 41.4523C66.7643 41.5103 67.3953 40.9743 67.4533 40.2563C67.5123 39.5393 66.9753 38.9093 66.2583 38.8513Z" fill="#72819C"/>
<path d="M93.3543 24.4214C93.2723 25.4274 92.3903 26.1764 91.3853 26.0944C90.3783 26.0124 89.6303 25.1324 89.7123 24.1264C89.7943 23.1194 90.6743 22.3714 91.6803 22.4534C92.6863 22.5344 93.4353 23.4144 93.3543 24.4214Z" fill="#72819C"/>
<path d="M91.3433 26.6154C90.0533 26.5104 89.0863 25.3754 89.1923 24.0844C89.2963 22.7934 90.4333 21.8274 91.7243 21.9324C93.0153 22.0374 93.9793 23.1734 93.8743 24.4654C93.7693 25.7554 92.6353 26.7204 91.3433 26.6154ZM91.6393 22.9734C90.9213 22.9154 90.2903 23.4524 90.2323 24.1684C90.1743 24.8864 90.7113 25.5174 91.4283 25.5754C92.1453 25.6334 92.7773 25.0964 92.8343 24.3794C92.8923 23.6634 92.3563 23.0324 91.6393 22.9734Z" fill="#72819C"/>
<path d="M106.531 16.1295C106.461 16.9915 105.705 17.6335 104.843 17.5645C103.981 17.4945 103.34 16.7385 103.409 15.8765C103.479 15.0145 104.234 14.3725 105.097 14.4425C105.959 14.5125 106.601 15.2665 106.531 16.1295Z" fill="#72819C"/>
<path d="M104.801 18.0835C103.654 17.9905 102.796 16.9825 102.889 15.8335C102.982 14.6875 103.992 13.8275 105.139 13.9205C106.287 14.0135 107.144 15.0245 107.051 16.1705C106.958 17.3195 105.949 18.1765 104.801 18.0835ZM105.055 14.9625C104.481 14.9165 103.977 15.3455 103.931 15.9175C103.884 16.4915 104.313 16.9975 104.886 17.0435C105.459 17.0895 105.965 16.6605 106.012 16.0865C106.057 15.5145 105.628 15.0085 105.055 14.9625Z" fill="#72819C"/>
<path d="M51.6333 6.10842C51.5513 7.11542 50.6703 7.86442 49.6643 7.78242C48.6583 7.70042 47.9093 6.82041 47.9913 5.81241C48.0733 4.80741 48.9543 4.05842 49.9593 4.14042C50.9653 4.22342 51.7143 5.10342 51.6333 6.10842Z" fill="#72819C"/>
<path d="M49.6213 8.30338C48.3303 8.19938 47.3663 7.06238 47.4703 5.77038C47.5753 4.48038 48.7103 3.51438 50.0013 3.61938C51.2923 3.72338 52.2573 4.86038 52.1523 6.15038C52.0483 7.44238 50.9123 8.40838 49.6213 8.30338ZM49.9173 4.66138C49.1993 4.60338 48.5693 5.13838 48.5113 5.85538C48.4533 6.57338 48.9893 7.20438 49.7063 7.26238C50.4233 7.32138 51.0543 6.78538 51.1133 6.06638C51.1703 5.34938 50.6343 4.71938 49.9173 4.66138Z" fill="#72819C"/>
<path d="M56.8733 23.8173C56.7913 24.8233 55.9103 25.5733 54.9043 25.4913C53.8983 25.4103 53.1493 24.5283 53.2303 23.5213C53.3123 22.5163 54.1933 21.7673 55.2003 21.8483C56.2053 21.9313 56.9543 22.8123 56.8733 23.8173Z" fill="#72819C"/>
<path d="M54.8623 26.0114C53.5713 25.9074 52.6063 24.7714 52.7113 23.4804C52.8153 22.1894 53.9513 21.2244 55.2423 21.3294C56.5333 21.4334 57.4983 22.5693 57.3933 23.8603C57.2883 25.1513 56.1533 26.1164 54.8623 26.0114ZM55.1583 22.3694C54.4403 22.3114 53.8103 22.8474 53.7523 23.5644C53.6943 24.2814 54.2303 24.9133 54.9473 24.9713C55.6643 25.0303 56.2953 24.4924 56.3533 23.7754C56.4113 23.0584 55.8753 22.4274 55.1583 22.3694Z" fill="#72819C"/>
<path d="M93.4443 72.2033C93.3633 73.2073 92.4813 73.9573 91.4743 73.8753C90.4693 73.7933 89.7193 72.9113 89.8013 71.9073C89.8823 70.8993 90.7643 70.1523 91.7703 70.2333C92.7763 70.3153 93.5263 71.1953 93.4443 72.2033Z" fill="#72819C"/>
<path d="M91.4323 74.3944C90.1403 74.2904 89.1763 73.1544 89.2813 71.8654C89.3863 70.5744 90.5203 69.6084 91.8123 69.7134C93.1043 69.8184 94.0693 70.9544 93.9643 72.2454C93.8593 73.5344 92.7243 74.5004 91.4323 74.3944ZM91.7283 70.7534C91.0113 70.6954 90.3793 71.2324 90.3223 71.9494C90.2633 72.6674 90.8013 73.2984 91.5163 73.3564C92.2333 73.4144 92.8643 72.8774 92.9223 72.1604C92.9813 71.4434 92.4443 70.8114 91.7283 70.7534Z" fill="#72819C"/>
<path d="M81.0473 73.2924C80.9663 74.2974 80.0853 75.0454 79.0793 74.9644C78.0733 74.8824 77.3243 74.0014 77.4063 72.9974C77.4883 71.9884 78.3683 71.2414 79.3753 71.3224C80.3813 71.4044 81.1293 72.2844 81.0473 73.2924Z" fill="#72819C"/>
<path d="M79.0373 75.4845C77.7463 75.3805 76.7803 74.2435 76.8853 72.9545C76.9903 71.6625 78.1262 70.6975 79.4172 70.8025C80.7072 70.9065 81.6733 72.0425 81.5683 73.3355C81.4643 74.6235 80.3273 75.5895 79.0373 75.4845ZM79.3333 71.8425C78.6143 71.7845 77.9833 72.3215 77.9253 73.0395C77.8663 73.7555 78.4043 74.3875 79.1223 74.4455C79.8383 74.5035 80.4703 73.9665 80.5273 73.2505C80.5863 72.5325 80.0493 71.9005 79.3333 71.8425Z" fill="#72819C"/>
<path d="M57.7343 76.2163C57.6533 77.2233 56.7723 77.9713 55.7663 77.8903C54.7603 77.8083 54.0113 76.9273 54.0933 75.9203C54.1753 74.9153 55.0553 74.1653 56.0613 74.2473C57.0673 74.3293 57.8153 75.2103 57.7343 76.2163Z" fill="#72819C"/>
<path d="M55.7233 78.4104C54.4323 78.3064 53.4673 77.1704 53.5723 75.8784C53.6773 74.5884 54.8123 73.6224 56.1043 73.7284C57.3963 73.8324 58.3603 74.9684 58.2563 76.2584C58.1503 77.5504 57.0153 78.5154 55.7233 78.4104ZM56.0183 74.7684C55.3013 74.7104 54.6703 75.2444 54.6123 75.9624C54.5543 76.6814 55.0913 77.3104 55.8073 77.3674C56.5243 77.4264 57.1563 76.8914 57.2143 76.1734C57.2733 75.4554 56.7363 74.8274 56.0183 74.7684Z" fill="#72819C"/>
<path d="M110.317 70.4024C110.236 71.4074 109.354 72.1584 108.348 72.0774C107.341 71.9954 106.594 71.1114 106.675 70.1064C106.757 69.1014 107.637 68.3504 108.644 68.4324C109.65 68.5144 110.399 69.3964 110.317 70.4024Z" fill="#72819C"/>
<path d="M108.307 72.5954C107.016 72.4914 106.05 71.3574 106.155 70.0654C106.259 68.7744 107.396 67.8094 108.687 67.9154C109.978 68.0194 110.943 69.1544 110.837 70.4454C110.732 71.7364 109.598 72.6994 108.307 72.5954ZM108.601 68.9534C107.884 68.8944 107.252 69.4324 107.195 70.1494C107.136 70.8664 107.672 71.4984 108.39 71.5554C109.108 71.6144 109.739 71.0764 109.797 70.3604C109.855 69.6434 109.319 69.0124 108.601 68.9534Z" fill="#72819C"/>
<path d="M46.4013 67.4404C46.3193 68.4474 45.4383 69.1964 44.4323 69.1144C43.4263 69.0334 42.6773 68.1514 42.7583 67.1444C42.8403 66.1404 43.7213 65.3914 44.7273 65.4734C45.7333 65.5554 46.4833 66.4364 46.4013 67.4404Z" fill="#72819C"/>
<path d="M44.3903 69.6354C43.0983 69.5294 42.1343 68.3954 42.2393 67.1034C42.3443 65.8124 43.4793 64.8484 44.7703 64.9534C46.0603 65.0574 47.0263 66.1924 46.9213 67.4834C46.8163 68.7744 45.6813 69.7394 44.3903 69.6354ZM44.6853 65.9914C43.9683 65.9334 43.3373 66.4704 43.2793 67.1864C43.2213 67.9034 43.7583 68.5354 44.4743 68.5924C45.1913 68.6514 45.8213 68.1134 45.8793 67.3984C45.9383 66.6824 45.4033 66.0494 44.6853 65.9914Z" fill="#72819C"/>
<path d="M53.1923 60.7915C53.1103 61.7975 52.2293 62.5465 51.2223 62.4645C50.2173 62.3825 49.4683 61.5015 49.5493 60.4955C49.6313 59.4905 50.5133 58.7405 51.5183 58.8225C52.5243 58.9045 53.2733 59.7865 53.1923 60.7915Z" fill="#72819C"/>
<path d="M51.1803 62.9865C49.8903 62.8815 48.9243 61.7455 49.0293 60.4545C49.1343 59.1625 50.2693 58.1995 51.5603 58.3045C52.8513 58.4095 53.8163 59.5435 53.7113 60.8355C53.6073 62.1255 52.4713 63.0905 51.1803 62.9865ZM51.4753 59.3435C50.7583 59.2855 50.1273 59.8215 50.0693 60.5385C50.0113 61.2555 50.5473 61.8865 51.2643 61.9455C51.9823 62.0035 52.6123 61.4675 52.6703 60.7495C52.7293 60.0325 52.1943 59.4015 51.4753 59.3435Z" fill="#72819C"/>
<path d="M35.6473 46.7984C35.5663 47.8044 34.6853 48.5533 33.6793 48.4723C32.6733 48.3913 31.9253 47.5093 32.0063 46.5033C32.0883 45.4983 32.9683 44.7484 33.9743 44.8304C34.9803 44.9124 35.7293 45.7934 35.6473 46.7984Z" fill="#72819C"/>
<path d="M33.6373 48.9923C32.3463 48.8883 31.3813 47.7523 31.4863 46.4613C31.5913 45.1703 32.7263 44.2053 34.0183 44.3103C35.3093 44.4143 36.2743 45.5503 36.1703 46.8413C36.0643 48.1323 34.9283 49.0973 33.6373 48.9923ZM33.9323 45.3493C33.2143 45.2913 32.5843 45.8283 32.5253 46.5453C32.4673 47.2623 33.0023 47.8933 33.7203 47.9513C34.4373 48.0103 35.0683 47.4733 35.1263 46.7563C35.1853 46.0383 34.6503 45.4073 33.9323 45.3493Z" fill="#72819C"/>
<path d="M12.6613 48.2505C12.5793 49.2565 11.6983 50.0045 10.6923 49.9235C9.68631 49.8415 8.93831 48.9615 9.01931 47.9545C9.10131 46.9485 9.98131 46.1995 10.9883 46.2815C11.9943 46.3625 12.7423 47.2435 12.6613 48.2505Z" fill="#72819C"/>
<path d="M10.6503 50.4445C9.35933 50.3405 8.39433 49.2035 8.49933 47.9125C8.60333 46.6215 9.74033 45.6565 11.0303 45.7615C12.3213 45.8655 13.2863 47.0025 13.1823 48.2925C13.0773 49.5835 11.9403 50.5495 10.6503 50.4445ZM10.9453 46.8015C10.2283 46.7425 9.59733 47.2785 9.53933 47.9965C9.48033 48.7135 10.0173 49.3435 10.7343 49.4015C11.4513 49.4595 12.0833 48.9245 12.1413 48.2075C12.1993 47.4905 11.6623 46.8595 10.9453 46.8015Z" fill="#72819C"/>
<path d="M33.2333 12.0373C33.1513 13.0433 32.2703 13.7913 31.2633 13.7093C30.2583 13.6283 29.5093 12.7473 29.5903 11.7413C29.6723 10.7343 30.5533 9.98628 31.5593 10.0673C32.5653 10.1493 33.3143 11.0293 33.2333 12.0373Z" fill="#72819C"/>
<path d="M31.2213 14.2294C29.9303 14.1244 28.9663 12.9894 29.0713 11.6994C29.1753 10.4074 30.3113 9.44138 31.6013 9.54638C32.8933 9.65138 33.8573 10.7874 33.7523 12.0794C33.6473 13.3704 32.5123 14.3344 31.2213 14.2294ZM31.5163 10.5884C30.7993 10.5304 30.1683 11.0654 30.1103 11.7834C30.0523 12.5004 30.5893 13.1314 31.3053 13.1894C32.0223 13.2474 32.6533 12.7124 32.7113 11.9954C32.7703 11.2764 32.2333 10.6464 31.5163 10.5884Z" fill="#72819C"/>
</svg>
