<svg width="1442" height="422" viewBox="0 0 1442 422" fill="none" xmlns="http://www.w3.org/2000/svg">
<path d="M1 401H1441" stroke="#E6E6E6" stroke-width="0.5"/>
<path d="M1 421H1441" stroke="#E6E6E6" stroke-width="0.5"/>
<path d="M1 261H1441" stroke="#E6E6E6" stroke-width="0.5"/>
<path d="M1 121H1441" stroke="#E6E6E6" stroke-width="0.5"/>
<path d="M1 381H1441" stroke="#E6E6E6" stroke-width="0.5"/>
<path d="M1 241H1441" stroke="#E6E6E6" stroke-width="0.5"/>
<path d="M1 101H1441" stroke="#E6E6E6" stroke-width="0.5"/>
<path d="M1 361H1441" stroke="#E6E6E6" stroke-width="0.5"/>
<path d="M1 221H1441" stroke="#E6E6E6" stroke-width="0.5"/>
<path d="M1 81H1441" stroke="#E6E6E6" stroke-width="0.5"/>
<path d="M1 341H1441" stroke="#E6E6E6" stroke-width="0.5"/>
<path d="M1 201H1441" stroke="#E6E6E6" stroke-width="0.5"/>
<path d="M1 61H1441" stroke="#E6E6E6" stroke-width="0.5"/>
<path d="M1 321H1441" stroke="#E6E6E6" stroke-width="0.5"/>
<path d="M1 181H1441" stroke="#E6E6E6" stroke-width="0.5"/>
<path d="M1 41H1441" stroke="#E6E6E6" stroke-width="0.5"/>
<path d="M1 301H1441" stroke="#E6E6E6" stroke-width="0.5"/>
<path d="M1 161H1441" stroke="#E6E6E6" stroke-width="0.5"/>
<path d="M1 21H1441" stroke="#E6E6E6" stroke-width="0.5"/>
<path d="M1 281H1441" stroke="#E6E6E6" stroke-width="0.5"/>
<path d="M1 141H1441" stroke="#E6E6E6" stroke-width="0.5"/>
<path d="M1 1H1441" stroke="#E6E6E6" stroke-width="0.5"/>
<path d="M401 421V1" stroke="#E6E6E6" stroke-width="0.5"/>
<path d="M261 421V1" stroke="#E6E6E6" stroke-width="0.5"/>
<path d="M121 421L121 1" stroke="#E6E6E6" stroke-width="0.5"/>
<path d="M381 421V1" stroke="#E6E6E6" stroke-width="0.5"/>
<path d="M241 421L241 1" stroke="#E6E6E6" stroke-width="0.5"/>
<path d="M101 421L101 1" stroke="#E6E6E6" stroke-width="0.5"/>
<path d="M361 421V1" stroke="#E6E6E6" stroke-width="0.5"/>
<path d="M221 421L221 1" stroke="#E6E6E6" stroke-width="0.5"/>
<path d="M81 421L81 1" stroke="#E6E6E6" stroke-width="0.5"/>
<path d="M341 421V1" stroke="#E6E6E6" stroke-width="0.5"/>
<path d="M201 421L201 1" stroke="#E6E6E6" stroke-width="0.5"/>
<path d="M61 421L61 1" stroke="#E6E6E6" stroke-width="0.5"/>
<path d="M321 421V1" stroke="#E6E6E6" stroke-width="0.5"/>
<path d="M181 421L181 1" stroke="#E6E6E6" stroke-width="0.5"/>
<path d="M41 421L41 1" stroke="#E6E6E6" stroke-width="0.5"/>
<path d="M301 421V1" stroke="#E6E6E6" stroke-width="0.5"/>
<path d="M161 421L161 1" stroke="#E6E6E6" stroke-width="0.5"/>
<path d="M21 421L21 1" stroke="#E6E6E6" stroke-width="0.5"/>
<path d="M281 421V1" stroke="#E6E6E6" stroke-width="0.5"/>
<path d="M141 421L141 1" stroke="#E6E6E6" stroke-width="0.5"/>
<path d="M1 421L1 1" stroke="#E6E6E6" stroke-width="0.5"/>
<path d="M821 421V1" stroke="#E6E6E6" stroke-width="0.5"/>
<path d="M681 421V1" stroke="#E6E6E6" stroke-width="0.5"/>
<path d="M541 421V1" stroke="#E6E6E6" stroke-width="0.5"/>
<path d="M801 421V1" stroke="#E6E6E6" stroke-width="0.5"/>
<path d="M661 421V1" stroke="#E6E6E6" stroke-width="0.5"/>
<path d="M521 421V1" stroke="#E6E6E6" stroke-width="0.5"/>
<path d="M781 421V1" stroke="#E6E6E6" stroke-width="0.5"/>
<path d="M641 421V1" stroke="#E6E6E6" stroke-width="0.5"/>
<path d="M501 421V1" stroke="#E6E6E6" stroke-width="0.5"/>
<path d="M761 421V1" stroke="#E6E6E6" stroke-width="0.5"/>
<path d="M621 421V1" stroke="#E6E6E6" stroke-width="0.5"/>
<path d="M481 421V1" stroke="#E6E6E6" stroke-width="0.5"/>
<path d="M741 421V1" stroke="#E6E6E6" stroke-width="0.5"/>
<path d="M601 421V1" stroke="#E6E6E6" stroke-width="0.5"/>
<path d="M461 421V1" stroke="#E6E6E6" stroke-width="0.5"/>
<path d="M721 421V1" stroke="#E6E6E6" stroke-width="0.5"/>
<path d="M581 421V1" stroke="#E6E6E6" stroke-width="0.5"/>
<path d="M441 421V1" stroke="#E6E6E6" stroke-width="0.5"/>
<path d="M701 421V1" stroke="#E6E6E6" stroke-width="0.5"/>
<path d="M561 421V1" stroke="#E6E6E6" stroke-width="0.5"/>
<path d="M421 421V1" stroke="#E6E6E6" stroke-width="0.5"/>
<path d="M1241 421V1" stroke="#E6E6E6" stroke-width="0.5"/>
<path d="M1101 421V1" stroke="#E6E6E6" stroke-width="0.5"/>
<path d="M961 421V1" stroke="#E6E6E6" stroke-width="0.5"/>
<path d="M1221 421V1" stroke="#E6E6E6" stroke-width="0.5"/>
<path d="M1081 421V1" stroke="#E6E6E6" stroke-width="0.5"/>
<path d="M941 421V1" stroke="#E6E6E6" stroke-width="0.5"/>
<path d="M1201 421V1" stroke="#E6E6E6" stroke-width="0.5"/>
<path d="M1061 421V1" stroke="#E6E6E6" stroke-width="0.5"/>
<path d="M921 421V1" stroke="#E6E6E6" stroke-width="0.5"/>
<path d="M1181 421V1" stroke="#E6E6E6" stroke-width="0.5"/>
<path d="M1041 421V1" stroke="#E6E6E6" stroke-width="0.5"/>
<path d="M901 421V1" stroke="#E6E6E6" stroke-width="0.5"/>
<path d="M1161 421V1" stroke="#E6E6E6" stroke-width="0.5"/>
<path d="M1021 421V1" stroke="#E6E6E6" stroke-width="0.5"/>
<path d="M881 421V1" stroke="#E6E6E6" stroke-width="0.5"/>
<path d="M1141 421V1" stroke="#E6E6E6" stroke-width="0.5"/>
<path d="M1001 421V1" stroke="#E6E6E6" stroke-width="0.5"/>
<path d="M861 421V1" stroke="#E6E6E6" stroke-width="0.5"/>
<path d="M1121 421V1" stroke="#E6E6E6" stroke-width="0.5"/>
<path d="M981 421V1" stroke="#E6E6E6" stroke-width="0.5"/>
<path d="M841 421V1" stroke="#E6E6E6" stroke-width="0.5"/>
<path d="M1381 421V1" stroke="#E6E6E6" stroke-width="0.5"/>
<path d="M1361 421V1" stroke="#E6E6E6" stroke-width="0.5"/>
<path d="M1341 421V1" stroke="#E6E6E6" stroke-width="0.5"/>
<path d="M1321 421V1" stroke="#E6E6E6" stroke-width="0.5"/>
<path d="M1441 421V1" stroke="#E6E6E6" stroke-width="0.5"/>
<path d="M1301 421V1" stroke="#E6E6E6" stroke-width="0.5"/>
<path d="M1421 421V1" stroke="#E6E6E6" stroke-width="0.5"/>
<path d="M1281 421V1" stroke="#E6E6E6" stroke-width="0.5"/>
<path d="M1401 421V1" stroke="#E6E6E6" stroke-width="0.5"/>
<path d="M1261 421V1" stroke="#E6E6E6" stroke-width="0.5"/>
</svg>
