<svg width="3695" height="419" viewBox="0 0 3695 419" fill="none" xmlns="http://www.w3.org/2000/svg">
<path d="M693.835 171.62V284.18C693.835 292.02 695.655 297.76 699.295 301.4C703.215 304.76 709.655 306.44 718.615 306.44H745.915V356H708.955C659.395 356 634.615 331.92 634.615 283.76V171.62H606.895V123.32H634.615V65.7798H693.835V123.32H745.915V171.62H693.835Z" fill="white"/>
<path d="M919.247 119.96C936.887 119.96 952.567 123.88 966.287 131.72C980.007 139.28 990.647 150.62 998.207 165.74C1006.05 180.58 1009.97 198.5 1009.97 219.5V356H951.167V227.48C951.167 209 946.547 194.86 937.307 185.06C928.067 174.98 915.467 169.94 899.507 169.94C883.267 169.94 870.387 174.98 860.867 185.06C851.627 194.86 847.007 209 847.007 227.48V356H788.207V45.1998H847.007V152.3C854.567 142.22 864.647 134.38 877.247 128.78C889.847 122.9 903.847 119.96 919.247 119.96Z" fill="white"/>
<path d="M1282.18 234.2C1282.18 242.04 1281.62 249.32 1280.5 256.04H1110.4C1111.52 273.12 1117.26 286.56 1127.62 296.36C1137.98 306.16 1150.86 311.06 1166.26 311.06C1188.1 311.06 1203.64 301.68 1212.88 282.92H1276.3C1269.58 305.32 1256.7 323.8 1237.66 338.36C1218.62 352.64 1195.24 359.78 1167.52 359.78C1145.12 359.78 1124.96 354.88 1107.04 345.08C1089.4 335 1075.54 320.86 1065.46 302.66C1055.66 284.46 1050.76 263.46 1050.76 239.66C1050.76 215.58 1055.66 194.44 1065.46 176.24C1075.26 158.04 1088.98 144.04 1106.62 134.24C1124.26 124.44 1144.56 119.54 1167.52 119.54C1189.64 119.54 1209.38 124.3 1226.74 133.82C1244.38 143.34 1257.96 156.78 1267.48 174.14C1277.28 191.5 1282.18 211.52 1282.18 234.2ZM1221.28 220.34C1221 204.1 1215.54 191.36 1204.9 182.12C1194.54 172.6 1181.52 167.84 1165.84 167.84C1151 167.84 1138.54 172.6 1128.46 182.12C1118.38 191.36 1112.36 204.1 1110.4 220.34H1221.28Z" fill="white"/>
<path d="M1504.86 300.14H1388.1L1368.78 356H1307.04L1412.46 62.4198H1480.92L1586.34 356H1524.18L1504.86 300.14ZM1489.32 254.36L1446.48 130.46L1403.64 254.36H1489.32Z" fill="white"/>
<path d="M1756.79 119.96C1774.43 119.96 1790.11 123.88 1803.83 131.72C1817.55 139.28 1828.19 150.62 1835.75 165.74C1843.59 180.58 1847.51 198.5 1847.51 219.5V356H1788.71V227.48C1788.71 209 1784.09 194.86 1774.85 185.06C1765.61 174.98 1753.01 169.94 1737.05 169.94C1720.81 169.94 1707.93 174.98 1698.41 185.06C1689.17 194.86 1684.55 209 1684.55 227.48V356H1625.75V45.1998H1684.55V152.3C1692.11 142.22 1702.19 134.38 1714.79 128.78C1727.39 122.9 1741.39 119.96 1756.79 119.96Z" fill="white"/>
<path d="M1992.04 359.78C1973 359.78 1955.92 356.42 1940.8 349.7C1925.96 342.7 1914.06 333.32 1905.1 321.56C1896.42 309.8 1891.66 296.78 1890.82 282.5H1950.04C1951.16 292.3 1955.5 300.28 1963.06 306.44C1970.62 312.32 1980.28 315.26 1992.04 315.26C2003.24 315.26 2011.92 313.02 2018.08 308.54C2024.52 303.78 2027.74 297.48 2027.74 289.64C2027.74 282.08 2023.82 276.34 2015.98 272.42C2008.42 268.5 1996.1 264.44 1979.02 260.24C1961.94 256.04 1947.94 251.84 1937.02 247.64C1926.1 243.16 1916.72 236.3 1908.88 227.06C1901.04 217.82 1897.12 205.64 1897.12 190.52C1897.12 177.36 1900.62 165.46 1907.62 154.82C1914.9 143.9 1925.4 135.36 1939.12 129.2C1953.12 122.76 1969.5 119.54 1988.26 119.54C2015.98 119.54 2038.1 126.54 2054.62 140.54C2071.14 154.26 2080.24 172.88 2081.92 196.4H2025.64C2024.8 186.6 2020.88 178.76 2013.88 172.88C2007.16 167 1998.06 164.06 1986.58 164.06C1975.94 164.06 1967.68 166.3 1961.8 170.78C1956.2 174.98 1953.4 180.86 1953.4 188.42C1953.4 196.26 1957.32 202.28 1965.16 206.48C1973 210.4 1985.18 214.46 2001.7 218.66C2018.5 222.86 2032.36 227.2 2043.28 231.68C2054.2 236.16 2063.58 243.02 2071.42 252.26C2079.26 261.22 2083.18 273.4 2083.18 288.8C2083.18 302.24 2079.54 314.42 2072.26 325.34C2064.98 335.98 2054.48 344.38 2040.76 350.54C2027.04 356.7 2010.8 359.78 1992.04 359.78Z" fill="white"/>
<path d="M2117.17 238.82C2117.17 215.3 2121.79 194.44 2131.03 176.24C2140.55 158.04 2153.29 144.04 2169.25 134.24C2185.49 124.44 2203.55 119.54 2223.43 119.54C2240.79 119.54 2255.91 123.04 2268.79 130.04C2281.95 137.04 2292.45 145.86 2300.29 156.5V123.32H2359.51V356H2300.29V321.98C2292.73 332.9 2282.23 342 2268.79 349.28C2255.63 356.28 2240.37 359.78 2223.01 359.78C2203.41 359.78 2185.49 354.74 2169.25 344.66C2153.29 334.58 2140.55 320.44 2131.03 302.24C2121.79 283.76 2117.17 262.62 2117.17 238.82ZM2300.29 239.66C2300.29 225.38 2297.49 213.2 2291.89 203.12C2286.29 192.76 2278.73 184.92 2269.21 179.6C2259.69 174 2249.47 171.2 2238.55 171.2C2227.63 171.2 2217.55 173.86 2208.31 179.18C2199.07 184.5 2191.51 192.34 2185.63 202.7C2180.03 212.78 2177.23 224.82 2177.23 238.82C2177.23 252.82 2180.03 265.14 2185.63 275.78C2191.51 286.14 2199.07 294.12 2208.31 299.72C2217.83 305.32 2227.91 308.12 2238.55 308.12C2249.47 308.12 2259.69 305.46 2269.21 300.14C2278.73 294.54 2286.29 286.7 2291.89 276.62C2297.49 266.26 2300.29 253.94 2300.29 239.66Z" fill="white"/>
<path d="M2545.88 119.96C2573.6 119.96 2596 128.78 2613.08 146.42C2630.16 163.78 2638.7 188.14 2638.7 219.5V356H2579.9V227.48C2579.9 209 2575.28 194.86 2566.04 185.06C2556.8 174.98 2544.2 169.94 2528.24 169.94C2512 169.94 2499.12 174.98 2489.6 185.06C2480.36 194.86 2475.74 209 2475.74 227.48V356H2416.94V123.32H2475.74V152.3C2483.58 142.22 2493.52 134.38 2505.56 128.78C2517.88 122.9 2531.32 119.96 2545.88 119.96Z" fill="white"/>
<path d="M3014.23 62.8398V356H2955.43V165.32L2876.89 356H2832.37L2753.41 165.32V356H2694.61V62.8398H2761.39L2854.63 280.82L2947.87 62.8398H3014.23Z" fill="white"/>
<path d="M3102.19 95.5998C3091.83 95.5998 3083.15 92.3798 3076.15 85.9398C3069.43 79.2198 3066.07 70.9598 3066.07 61.1598C3066.07 51.3598 3069.43 43.2398 3076.15 36.7998C3083.15 30.0798 3091.83 26.7198 3102.19 26.7198C3112.55 26.7198 3121.09 30.0798 3127.81 36.7998C3134.81 43.2398 3138.31 51.3598 3138.31 61.1598C3138.31 70.9598 3134.81 79.2198 3127.81 85.9398C3121.09 92.3798 3112.55 95.5998 3102.19 95.5998ZM3131.17 123.32V356H3072.37V123.32H3131.17Z" fill="white"/>
<path d="M3318.2 119.96C3345.92 119.96 3368.32 128.78 3385.4 146.42C3402.48 163.78 3411.02 188.14 3411.02 219.5V356H3352.22V227.48C3352.22 209 3347.6 194.86 3338.36 185.06C3329.12 174.98 3316.52 169.94 3300.56 169.94C3284.32 169.94 3271.44 174.98 3261.92 185.06C3252.68 194.86 3248.06 209 3248.06 227.48V356H3189.26V123.32H3248.06V152.3C3255.9 142.22 3265.84 134.38 3277.88 128.78C3290.2 122.9 3303.64 119.96 3318.2 119.96Z" fill="white"/>
<path d="M3451.82 238.82C3451.82 215.3 3456.44 194.44 3465.68 176.24C3475.2 158.04 3488.08 144.04 3504.32 134.24C3520.56 124.44 3538.62 119.54 3558.5 119.54C3573.62 119.54 3588.04 122.9 3601.76 129.62C3615.48 136.06 3626.4 144.74 3634.52 155.66V45.1998H3694.16V356H3634.52V321.56C3627.24 333.04 3617.02 342.28 3603.86 349.28C3590.7 356.28 3575.44 359.78 3558.08 359.78C3538.48 359.78 3520.56 354.74 3504.32 344.66C3488.08 334.58 3475.2 320.44 3465.68 302.24C3456.44 283.76 3451.82 262.62 3451.82 238.82ZM3634.94 239.66C3634.94 225.38 3632.14 213.2 3626.54 203.12C3620.94 192.76 3613.38 184.92 3603.86 179.6C3594.34 174 3584.12 171.2 3573.2 171.2C3562.28 171.2 3552.2 173.86 3542.96 179.18C3533.72 184.5 3526.16 192.34 3520.28 202.7C3514.68 212.78 3511.88 224.82 3511.88 238.82C3511.88 252.82 3514.68 265.14 3520.28 275.78C3526.16 286.14 3533.72 294.12 3542.96 299.72C3552.48 305.32 3562.56 308.12 3573.2 308.12C3584.12 308.12 3594.34 305.46 3603.86 300.14C3613.38 294.54 3620.94 286.7 3626.54 276.62C3632.14 266.26 3634.94 253.94 3634.94 239.66Z" fill="white"/>
<path d="M21.9086 412.302C42.2926 424.071 68.3575 417.087 80.1262 396.703C91.8949 376.319 84.9108 350.254 64.5268 338.485C44.1429 326.717 18.078 333.701 6.30928 354.085C-5.45941 374.469 1.52465 400.534 21.9086 412.302Z" fill="white"/>
<path d="M448.092 412.301C427.708 424.069 401.643 417.085 389.874 396.701C378.105 376.317 385.09 350.252 405.473 338.484C425.857 326.715 451.922 333.699 463.691 354.083C475.46 374.467 468.476 400.532 448.092 412.301Z" fill="white"/>
<path d="M198.092 21.908L70.237 243.359C58.4683 263.743 65.4524 289.808 85.8363 301.576C106.22 313.345 132.285 306.361 144.054 285.977L235.001 128.453L325.947 285.977C337.716 306.361 363.781 313.345 384.165 301.576C404.549 289.808 411.533 263.743 399.764 243.359L271.91 21.908C267.223 13.79 260.268 7.79731 252.308 4.26805C246.874 1.8587 240.971 0.597433 235.002 0.591816C229.031 0.597198 223.127 1.85859 217.692 4.26836C209.733 7.79766 202.778 13.7902 198.092 21.908Z" fill="white"/>
</svg>
