<svg width="9123" height="1541" viewBox="0 0 9123 1541" fill="none" xmlns="http://www.w3.org/2000/svg">
<path d="M1711.98 678.911V954.291C1711.98 973.472 1716.43 987.515 1725.34 996.42C1734.93 1004.64 1750.69 1008.75 1772.61 1008.75H1839.4V1130H1748.97C1627.72 1130 1567.1 1071.09 1567.1 953.264V678.911H1499.28V560.744H1567.1V419.972H1711.98V560.744H1839.4V678.911H1711.98ZM2263.46 552.524C2306.61 552.524 2344.97 562.115 2378.54 581.295C2412.11 599.791 2438.14 627.534 2456.63 664.526C2475.81 700.832 2485.4 744.674 2485.4 796.05V1130H2341.55V815.574C2341.55 770.362 2330.25 735.768 2307.64 711.792C2285.03 687.132 2254.21 674.801 2215.16 674.801C2175.43 674.801 2143.92 687.132 2120.63 711.792C2098.02 735.768 2086.72 770.362 2086.72 815.574V1130H1942.86V369.623H2086.72V631.645C2105.22 606.984 2129.88 587.803 2160.7 574.102C2191.53 559.717 2225.78 552.524 2263.46 552.524ZM3151.38 832.014C3151.38 851.195 3150.01 869.006 3147.27 885.446H2731.12C2733.86 927.233 2747.91 960.114 2773.25 984.09C2798.6 1008.07 2830.11 1020.05 2867.78 1020.05C2921.22 1020.05 2959.24 997.105 2981.84 951.209H3137C3120.56 1006.01 3089.05 1051.22 3042.47 1086.84C2995.88 1121.78 2938.68 1139.25 2870.87 1139.25C2816.07 1139.25 2766.74 1127.26 2722.9 1103.28C2679.75 1078.62 2645.84 1044.03 2621.18 999.503C2597.2 954.976 2585.21 903.599 2585.21 845.372C2585.21 786.46 2597.2 734.741 2621.18 690.214C2645.15 645.688 2678.72 611.436 2721.87 587.46C2765.03 563.485 2814.69 551.497 2870.87 551.497C2924.98 551.497 2973.28 563.142 3015.75 586.433C3058.91 609.724 3092.13 642.605 3115.42 685.076C3139.4 727.548 3151.38 776.527 3151.38 832.014ZM3002.39 798.106C3001.71 758.374 2988.35 727.205 2962.32 704.6C2936.97 681.309 2905.12 669.663 2866.76 669.663C2830.45 669.663 2799.97 681.309 2775.31 704.6C2750.65 727.205 2735.92 758.374 2731.12 798.106H3002.39ZM3696.17 993.338H3410.52L3363.25 1130H3212.2L3470.11 411.752H3637.6L3895.51 1130H3743.44L3696.17 993.338ZM3658.15 881.336L3553.34 578.213L3448.54 881.336H3658.15ZM4312.51 552.524C4355.67 552.524 4394.03 562.115 4427.59 581.295C4461.16 599.791 4487.19 627.534 4505.69 664.526C4524.87 700.832 4534.46 744.674 4534.46 796.05V1130H4390.6V815.574C4390.6 770.362 4379.3 735.768 4356.69 711.792C4334.09 687.132 4303.26 674.801 4264.22 674.801C4224.48 674.801 4192.97 687.132 4169.68 711.792C4147.08 735.768 4135.77 770.362 4135.77 815.574V1130H3991.92V369.623H4135.77V631.645C4154.27 606.984 4178.93 587.803 4209.76 574.102C4240.58 559.717 4274.83 552.524 4312.51 552.524ZM4888.07 1139.25C4841.48 1139.25 4799.7 1131.03 4762.71 1114.59C4726.4 1097.46 4697.29 1074.51 4675.37 1045.74C4654.13 1016.97 4642.49 985.117 4640.43 950.181H4785.31C4788.05 974.157 4798.67 993.68 4817.17 1008.75C4835.66 1023.14 4859.3 1030.33 4888.07 1030.33C4915.47 1030.33 4936.7 1024.85 4951.77 1013.89C4967.53 1002.24 4975.41 986.83 4975.41 967.649C4975.41 949.153 4965.82 935.11 4946.64 925.52C4928.14 915.93 4898 905.997 4856.21 895.722C4814.43 885.446 4780.18 875.171 4753.46 864.895C4726.74 853.935 4703.79 837.152 4684.61 814.546C4665.43 791.94 4655.84 762.142 4655.84 725.15C4655.84 692.954 4664.41 663.841 4681.53 637.81C4699.34 611.094 4725.03 590.201 4758.6 575.13C4792.85 559.374 4832.92 551.497 4878.82 551.497C4946.64 551.497 5000.75 568.622 5041.17 602.874C5081.59 636.44 5103.85 681.994 5107.96 739.536H4970.27C4968.21 715.56 4958.62 696.379 4941.5 681.994C4925.06 667.608 4902.79 660.416 4874.71 660.416C4848.68 660.416 4828.47 665.896 4814.08 676.856C4800.38 687.132 4793.53 701.517 4793.53 720.013C4793.53 739.193 4803.12 753.921 4822.3 764.197C4841.48 773.787 4871.28 783.72 4911.7 793.995C4952.8 804.271 4986.71 814.889 5013.43 825.849C5040.14 836.809 5063.09 853.593 5082.27 876.198C5101.45 898.119 5111.04 927.918 5111.04 965.594C5111.04 998.475 5102.14 1028.27 5084.33 1054.99C5066.52 1081.02 5040.83 1101.57 5007.26 1116.64C4973.69 1131.71 4933.96 1139.25 4888.07 1139.25ZM5194.19 843.317C5194.19 785.775 5205.5 734.741 5228.1 690.214C5251.39 645.688 5282.56 611.436 5321.61 587.46C5361.34 563.485 5405.52 551.497 5454.16 551.497C5496.63 551.497 5533.62 560.059 5565.13 577.185C5597.33 594.311 5623.02 615.889 5642.2 641.92V560.744H5787.08V1130H5642.2V1046.77C5623.7 1073.49 5598.01 1095.75 5565.13 1113.56C5532.94 1130.69 5495.6 1139.25 5453.13 1139.25C5405.18 1139.25 5361.34 1126.92 5321.61 1102.26C5282.56 1077.6 5251.39 1043 5228.1 998.475C5205.5 953.264 5194.19 901.544 5194.19 843.317ZM5642.2 845.372C5642.2 810.436 5635.35 780.637 5621.65 755.977C5607.95 730.631 5589.45 711.45 5566.16 698.434C5542.87 684.734 5517.87 677.884 5491.15 677.884C5464.43 677.884 5439.77 684.391 5417.17 697.407C5394.56 710.422 5376.07 729.603 5361.68 754.949C5347.98 779.61 5341.13 809.066 5341.13 843.317C5341.13 877.568 5347.98 907.709 5361.68 933.74C5376.07 959.086 5394.56 978.61 5417.17 992.31C5440.46 1006.01 5465.12 1012.86 5491.15 1012.86C5517.87 1012.86 5542.87 1006.35 5566.16 993.338C5589.45 979.637 5607.95 960.456 5621.65 935.795C5635.35 910.45 5642.2 880.309 5642.2 845.372ZM6243.03 552.524C6310.85 552.524 6365.65 574.102 6407.44 617.259C6449.23 659.731 6470.12 719.328 6470.12 796.05V1130H6326.27V815.574C6326.27 770.362 6314.96 735.768 6292.36 711.792C6269.75 687.132 6238.92 674.801 6199.88 674.801C6160.15 674.801 6128.64 687.132 6105.34 711.792C6082.74 735.768 6071.44 770.362 6071.44 815.574V1130H5927.58V560.744H6071.44V631.645C6090.62 606.984 6114.93 587.803 6144.39 574.102C6174.53 559.717 6207.41 552.524 6243.03 552.524ZM7388.87 412.779V1130H7245.02V663.498L7052.87 1130H6943.95L6750.77 663.498V1130H6606.92V412.779H6770.3L6998.41 946.071L7226.52 412.779H7388.87ZM7604.06 492.927C7578.71 492.927 7557.47 485.049 7540.35 469.294C7523.91 452.853 7515.69 432.645 7515.69 408.669C7515.69 384.693 7523.91 364.827 7540.35 349.072C7557.47 332.631 7578.71 324.411 7604.06 324.411C7629.4 324.411 7650.3 332.631 7666.74 349.072C7683.86 364.827 7692.42 384.693 7692.42 408.669C7692.42 432.645 7683.86 452.853 7666.74 469.294C7650.3 485.049 7629.4 492.927 7604.06 492.927ZM7674.96 560.744V1130H7531.1V560.744H7674.96ZM8132.54 552.524C8200.36 552.524 8255.16 574.102 8296.94 617.259C8338.73 659.731 8359.62 719.328 8359.62 796.05V1130H8215.77V815.574C8215.77 770.362 8204.47 735.768 8181.86 711.792C8159.25 687.132 8128.43 674.801 8089.38 674.801C8049.65 674.801 8018.14 687.132 7994.85 711.792C7972.24 735.768 7960.94 770.362 7960.94 815.574V1130H7817.09V560.744H7960.94V631.645C7980.12 606.984 8004.44 587.803 8033.9 574.102C8064.04 559.717 8096.92 552.524 8132.54 552.524ZM8459.43 843.317C8459.43 785.775 8470.74 734.741 8493.34 690.214C8516.63 645.688 8548.14 611.436 8587.87 587.46C8627.61 563.485 8671.79 551.497 8720.43 551.497C8757.42 551.497 8792.7 559.717 8826.26 576.158C8859.83 591.913 8886.55 613.149 8906.41 639.865V369.623H9052.32V1130H8906.41V1045.74C8888.6 1073.83 8863.6 1096.43 8831.4 1113.56C8799.2 1130.69 8761.87 1139.25 8719.4 1139.25C8671.45 1139.25 8627.61 1126.92 8587.87 1102.26C8548.14 1077.6 8516.63 1043 8493.34 998.475C8470.74 953.264 8459.43 901.544 8459.43 843.317ZM8907.44 845.372C8907.44 810.436 8900.59 780.637 8886.89 755.977C8873.19 730.631 8854.69 711.45 8831.4 698.434C8808.11 684.734 8783.11 677.884 8756.39 677.884C8729.67 677.884 8705.01 684.391 8682.41 697.407C8659.8 710.422 8641.31 729.603 8626.92 754.949C8613.22 779.61 8606.37 809.066 8606.37 843.317C8606.37 877.568 8613.22 907.709 8626.92 933.74C8641.31 959.086 8659.8 978.61 8682.41 992.31C8705.7 1006.01 8730.36 1012.86 8756.39 1012.86C8783.11 1012.86 8808.11 1006.35 8831.4 993.338C8854.69 979.637 8873.19 960.456 8886.89 935.795C8900.59 910.45 8907.44 880.309 8907.44 845.372Z" fill="white"/>
<circle cx="104.266" cy="104.266" r="104.266" transform="matrix(-0.5 0.866025 0.866025 0.5 104.299 1035.31)" fill="white"/>
<rect width="834.129" height="208.532" rx="104.266" transform="matrix(-0.5 0.866025 0.866025 0.5 573.498 222.632)" fill="white"/>
<circle cx="1080.83" cy="1177.74" r="104.266" transform="rotate(60 1080.83 1177.74)" fill="white"/>
<rect x="649.794" y="222.633" width="834.129" height="208.532" rx="104.266" transform="rotate(60 649.794 222.633)" fill="white"/>
</svg>
