<svg width="3030" height="482" viewBox="0 0 3030 482" fill="none" xmlns="http://www.w3.org/2000/svg">
<circle cx="44.0673" cy="44.0673" r="44.0673" transform="matrix(-0.5 0.866025 0.866025 0.5 44.0671 360.837)" fill="white"/>
<rect width="352.538" height="88.1345" rx="44.0672" transform="matrix(-0.5 0.866025 0.866025 0.5 242.37 17.3662)" fill="white"/>
<circle cx="456.803" cy="421.032" r="44.0673" transform="rotate(60 456.803 421.032)" fill="white"/>
<rect x="274.631" y="17.3662" width="352.538" height="88.1345" rx="44.0672" transform="rotate(60 274.631 17.3662)" fill="white"/>
<path d="M1091.92 171.959C1109.56 171.959 1125.24 175.879 1138.96 183.719C1152.68 191.279 1163.32 202.619 1170.88 217.739C1178.72 232.579 1182.64 250.499 1182.64 271.499V407.999H1123.84V279.479C1123.84 260.999 1119.22 246.859 1109.98 237.059C1100.74 226.979 1088.14 221.939 1072.18 221.939C1055.94 221.939 1043.06 226.979 1033.54 237.059C1024.3 246.859 1019.68 260.999 1019.68 279.479V407.999H960.882V97.1988H1019.68V204.299C1027.24 194.219 1037.32 186.379 1049.92 180.779C1062.52 174.899 1076.52 171.959 1091.92 171.959Z" fill="white"/>
<path d="M1327.18 411.779C1308.14 411.779 1291.06 408.419 1275.94 401.699C1261.1 394.699 1249.2 385.319 1240.24 373.559C1231.56 361.799 1226.8 348.779 1225.96 334.499H1285.18C1286.3 344.299 1290.64 352.279 1298.2 358.439C1305.76 364.319 1315.42 367.259 1327.18 367.259C1338.38 367.259 1347.06 365.019 1353.22 360.539C1359.66 355.779 1362.88 349.479 1362.88 341.639C1362.88 334.079 1358.96 328.339 1351.12 324.419C1343.56 320.499 1331.24 316.439 1314.16 312.239C1297.08 308.039 1283.08 303.839 1272.16 299.639C1261.24 295.159 1251.86 288.299 1244.02 279.059C1236.18 269.819 1232.26 257.639 1232.26 242.519C1232.26 229.359 1235.76 217.459 1242.76 206.819C1250.04 195.899 1260.54 187.359 1274.26 181.199C1288.26 174.759 1304.64 171.539 1323.4 171.539C1351.12 171.539 1373.24 178.539 1389.76 192.539C1406.28 206.259 1415.38 224.879 1417.06 248.399H1360.78C1359.94 238.599 1356.02 230.759 1349.02 224.879C1342.3 218.999 1333.2 216.059 1321.72 216.059C1311.08 216.059 1302.82 218.299 1296.94 222.779C1291.34 226.979 1288.54 232.859 1288.54 240.419C1288.54 248.259 1292.46 254.279 1300.3 258.479C1308.14 262.399 1320.32 266.459 1336.84 270.659C1353.64 274.859 1367.5 279.199 1378.42 283.679C1389.34 288.159 1398.72 295.019 1406.56 304.259C1414.4 313.219 1418.32 325.399 1418.32 340.799C1418.32 354.239 1414.68 366.419 1407.4 377.339C1400.12 387.979 1389.62 396.379 1375.9 402.539C1362.18 408.699 1345.94 411.779 1327.18 411.779Z" fill="white"/>
<path d="M1452.3 290.819C1452.3 267.299 1456.92 246.439 1466.16 228.239C1475.68 210.039 1488.42 196.039 1504.38 186.239C1520.62 176.439 1538.68 171.539 1558.56 171.539C1575.92 171.539 1591.04 175.039 1603.92 182.039C1617.08 189.039 1627.58 197.859 1635.42 208.499V175.319H1694.64V407.999H1635.42V373.979C1627.86 384.899 1617.36 393.999 1603.92 401.279C1590.76 408.279 1575.5 411.779 1558.14 411.779C1538.54 411.779 1520.62 406.739 1504.38 396.659C1488.42 386.579 1475.68 372.439 1466.16 354.239C1456.92 335.759 1452.3 314.619 1452.3 290.819ZM1635.42 291.659C1635.42 277.379 1632.62 265.199 1627.02 255.119C1621.42 244.759 1613.86 236.919 1604.34 231.599C1594.82 225.999 1584.6 223.199 1573.68 223.199C1562.76 223.199 1552.68 225.859 1543.44 231.179C1534.2 236.499 1526.64 244.339 1520.76 254.699C1515.16 264.779 1512.36 276.819 1512.36 290.819C1512.36 304.819 1515.16 317.139 1520.76 327.779C1526.64 338.139 1534.2 346.119 1543.44 351.719C1552.96 357.319 1563.04 360.119 1573.68 360.119C1584.6 360.119 1594.82 357.459 1604.34 352.139C1613.86 346.539 1621.42 338.699 1627.02 328.619C1632.62 318.259 1635.42 305.939 1635.42 291.659Z" fill="white"/>
<path d="M1881.01 171.959C1908.73 171.959 1931.13 180.779 1948.21 198.419C1965.29 215.779 1973.83 240.139 1973.83 271.499V407.999H1915.03V279.479C1915.03 260.999 1910.41 246.859 1901.17 237.059C1891.93 226.979 1879.33 221.939 1863.37 221.939C1847.13 221.939 1834.25 226.979 1824.73 237.059C1815.49 246.859 1810.87 260.999 1810.87 279.479V407.999H1752.07V175.319H1810.87V204.299C1818.71 194.219 1828.65 186.379 1840.69 180.779C1853.01 174.899 1866.45 171.959 1881.01 171.959Z" fill="white"/>
<path d="M2349.37 114.839V407.999H2290.57V217.319L2212.03 407.999H2167.51L2088.55 217.319V407.999H2029.75V114.839H2096.53L2189.77 332.819L2283.01 114.839H2349.37Z" fill="white"/>
<path d="M2437.32 147.599C2426.96 147.599 2418.28 144.379 2411.28 137.939C2404.56 131.219 2401.2 122.959 2401.2 113.159C2401.2 103.359 2404.56 95.2387 2411.28 88.7987C2418.28 82.0787 2426.96 78.7188 2437.32 78.7188C2447.68 78.7188 2456.22 82.0787 2462.94 88.7987C2469.94 95.2387 2473.44 103.359 2473.44 113.159C2473.44 122.959 2469.94 131.219 2462.94 137.939C2456.22 144.379 2447.68 147.599 2437.32 147.599ZM2466.3 175.319V407.999H2407.5V175.319H2466.3Z" fill="white"/>
<path d="M2653.34 171.959C2681.06 171.959 2703.46 180.779 2720.54 198.419C2737.62 215.779 2746.16 240.139 2746.16 271.499V407.999H2687.36V279.479C2687.36 260.999 2682.74 246.859 2673.5 237.059C2664.26 226.979 2651.66 221.939 2635.7 221.939C2619.46 221.939 2606.58 226.979 2597.06 237.059C2587.82 246.859 2583.2 260.999 2583.2 279.479V407.999H2524.4V175.319H2583.2V204.299C2591.04 194.219 2600.98 186.379 2613.02 180.779C2625.34 174.899 2638.78 171.959 2653.34 171.959Z" fill="white"/>
<path d="M2786.95 290.819C2786.95 267.299 2791.57 246.439 2800.81 228.239C2810.33 210.039 2823.21 196.039 2839.45 186.239C2855.69 176.439 2873.75 171.539 2893.63 171.539C2908.75 171.539 2923.17 174.899 2936.89 181.619C2950.61 188.059 2961.53 196.739 2969.65 207.659V97.1988H3029.29V407.999H2969.65V373.559C2962.37 385.039 2952.15 394.279 2938.99 401.279C2925.83 408.279 2910.57 411.779 2893.21 411.779C2873.61 411.779 2855.69 406.739 2839.45 396.659C2823.21 386.579 2810.33 372.439 2800.81 354.239C2791.57 335.759 2786.95 314.619 2786.95 290.819ZM2970.07 291.659C2970.07 277.379 2967.27 265.199 2961.67 255.119C2956.07 244.759 2948.51 236.919 2938.99 231.599C2929.47 225.999 2919.25 223.199 2908.33 223.199C2897.41 223.199 2887.33 225.859 2878.09 231.179C2868.85 236.499 2861.29 244.339 2855.41 254.699C2849.81 264.779 2847.01 276.819 2847.01 290.819C2847.01 304.819 2849.81 317.139 2855.41 327.779C2861.29 338.139 2868.85 346.119 2878.09 351.719C2887.61 357.319 2897.69 360.119 2908.33 360.119C2919.25 360.119 2929.47 357.459 2938.99 352.139C2948.51 346.539 2956.07 338.699 2961.67 328.619C2967.27 318.259 2970.07 305.939 2970.07 291.659Z" fill="white"/>
<path fill-rule="evenodd" clip-rule="evenodd" d="M839.997 352.139H723.237L703.917 407.999H642.177L726.382 173.5C740.921 168.446 771 153 783 114.419H816.057L921.477 407.999H859.317L839.997 352.139ZM781.617 182.459L824.457 306.359H738.777L781.617 182.459Z" fill="white"/>
<path d="M536.84 182.738C529.91 183.621 524.136 182.409 519.519 179.101C515.049 175.774 512.326 170.277 511.349 162.61C510.805 158.334 510.746 153.171 511.175 147.123C511.603 141.075 512.353 134.611 513.424 127.731C514.625 120.685 515.991 113.768 517.524 106.98C516.141 106.707 514.84 106.498 513.623 106.353C512.535 106.042 511.059 105.631 509.195 105.119L508.322 98.2624C511.032 98.3666 513.079 98.5554 514.463 98.8287C515.827 98.9545 517.487 99.0428 519.441 99.0935C522.236 88.0985 525.429 77.8768 529.021 68.4286C532.612 58.9803 536.282 51.3203 540.029 45.4485C543.776 39.5767 547.272 36.4342 550.516 36.0209C552.138 35.8143 553.688 36.2163 555.165 37.2268C556.642 38.2374 557.475 39.4799 557.663 40.9545C557.888 42.7239 557.37 45.7119 556.107 49.9185C554.845 54.1251 553.133 58.9136 550.97 64.2839C548.935 69.4879 546.827 74.7014 544.646 79.9242C542.611 85.1282 540.714 89.6405 538.953 93.4612C537.339 97.263 536.377 99.7082 536.066 100.797C539.975 100.898 543.58 100.963 546.88 100.992C550.162 100.874 553.424 100.608 556.668 100.195C560.944 99.6503 565.33 98.7919 569.826 97.6198C574.322 96.4477 579.306 94.9886 584.778 93.2427C587.406 82.1189 590.506 71.16 594.076 60.3659C597.627 49.4244 601.392 39.5794 605.372 30.8308C609.481 21.916 613.511 14.7345 617.463 9.28631C621.542 3.67183 625.352 0.639186 628.891 0.188367C631.84 -0.187316 634.341 1.21723 636.395 4.40201C638.43 7.43934 639.692 10.8749 640.181 14.7086C640.8 19.5746 640.298 25.6323 638.675 32.8819C637.051 40.1315 634.497 47.7244 631.012 55.6605C627.528 63.5966 623.176 71.1937 617.957 78.4518C612.886 85.6911 607.138 91.7427 600.715 96.6068C599.362 101.275 598.297 107.029 597.52 113.871C596.872 120.547 596.5 127.038 596.404 133.344C596.309 139.649 596.496 144.645 596.965 148.332C599.321 138.591 602.212 129.532 605.64 121.153C609.068 112.775 613.21 105.879 618.064 100.465C623.066 95.0331 628.811 91.9037 635.299 91.0772C642.082 90.2132 647.313 91.8694 650.992 96.046C654.652 100.075 656.82 104.744 657.496 110.052C658.041 114.328 657.784 118.781 656.726 123.412C655.796 127.875 654.774 132.201 653.659 136.389C652.673 140.411 652.377 143.97 652.771 147.066C653.109 149.721 653.934 151.489 655.245 152.37C656.704 153.234 658.17 153.571 659.645 153.383C662.889 152.97 666.442 150.869 670.305 147.08C674.296 143.125 678.009 138.157 681.443 132.175C685.024 126.175 687.821 119.9 689.833 113.35L694.543 116.796C692.238 124.582 689.195 131.862 685.413 138.638C681.631 145.413 677.163 150.927 672.011 155.179C667.025 159.561 661.435 162.146 655.242 162.935C649.639 163.649 645.101 162.728 641.629 160.174C638.304 157.6 636.36 154.102 635.797 149.678C635.402 146.582 635.496 143.198 636.077 139.528C636.787 135.691 637.414 131.791 637.958 127.825C638.502 123.86 638.567 120.255 638.154 117.011C637.722 113.62 636.674 111.281 635.012 109.994C633.497 108.689 631.56 108.186 629.201 108.487C625.662 108.938 622.606 110.826 620.032 114.15C617.588 117.309 615.477 121.324 613.7 126.195C611.923 131.067 610.331 136.215 608.924 141.638C607.499 146.915 606.045 151.97 604.563 156.804C603.228 161.619 601.633 165.568 599.779 168.652C598.09 171.864 595.992 173.63 593.486 173.949C591.274 174.231 589.29 173.36 587.533 171.336C585.925 169.293 584.481 166.78 583.201 163.796C581.922 160.812 580.947 157.864 580.277 154.953C579.587 151.894 579.139 149.554 578.933 147.932C574.124 157.235 568.077 165.048 560.791 171.371C553.671 177.822 545.687 181.611 536.84 182.738ZM541.845 170.862C549.218 169.923 556.187 165.814 562.752 158.534C569.445 151.088 574.806 141.415 578.834 129.513C579.155 124.977 579.578 120.652 580.103 116.54C580.628 112.427 581.401 107.908 582.422 102.983C578.111 104.431 573.92 105.64 569.847 106.608C565.775 107.576 561.748 108.314 557.767 108.821C553.786 109.328 549.777 109.614 545.739 109.679C541.701 109.744 537.571 109.671 533.349 109.459C531.025 117.098 529.301 124.735 528.176 132.37C527.051 140.006 526.977 147.657 527.953 155.325C528.723 161.371 530.089 165.617 532.049 168.065C534.156 170.493 537.422 171.426 541.845 170.862ZM603.364 82.109C607.17 77.878 610.625 73.2421 613.729 68.2015C616.833 63.1609 619.486 58.1029 621.686 53.0275C624.015 47.7859 625.866 42.905 627.238 38.3846C628.739 33.6981 629.651 29.6859 629.975 26.348C630.155 24.2273 630.169 22.5772 630.019 21.3976C628.877 21.8427 627.167 23.7089 624.888 26.9961C622.757 30.2644 620.325 34.6951 617.591 40.2879C614.838 45.7333 612.198 52.0635 609.671 59.2783C607.125 66.3457 605.022 73.9559 603.364 82.109Z" fill="white"/>
<path d="M716.384 159.417C706.947 160.619 699.319 158.968 693.501 154.465C687.849 150.09 684.535 144.069 683.558 136.401C682.731 129.913 683.48 122.85 685.803 115.212C688.256 107.407 691.879 99.9778 696.675 92.9235C701.452 85.7218 706.978 79.6983 713.253 74.8531C719.529 70.0078 726.058 67.1531 732.841 66.289C736.675 65.8007 740.419 66.3726 744.073 68.0049C747.856 69.471 750.124 73.153 750.875 79.0511C751.589 84.6543 750.634 90.0955 748.01 95.3747C745.385 100.654 741.59 105.558 736.622 110.087C731.655 114.615 726.013 118.556 719.697 121.908C713.51 125.093 707.146 127.478 700.604 129.06C700.532 129.669 700.469 130.351 700.415 131.107C700.49 131.697 700.622 132.729 700.81 134.204C700.904 134.941 701.147 136.259 701.538 138.157C702.058 139.889 702.966 141.721 704.261 143.654C705.557 145.587 707.478 147.14 710.025 148.314C712.572 149.488 715.91 149.812 720.038 149.286C726.231 148.497 732.208 146.012 737.969 141.832C743.859 137.485 749.165 132.089 753.888 125.644C758.759 119.179 762.587 112.173 765.371 104.626L770.246 107.601C767.392 116.956 763.217 125.354 757.722 132.798C752.374 140.222 746.101 146.265 738.903 150.929C731.853 155.573 724.346 158.402 716.384 159.417ZM701.995 120.567C705.772 119.636 709.879 117.764 714.316 114.951C718.752 112.138 722.893 108.764 726.737 104.828C730.728 100.873 733.871 96.7262 736.166 92.3881C738.442 87.9025 739.316 83.5954 738.79 79.4668C738.584 77.8448 738.148 76.7765 737.483 76.2618C736.818 75.7471 735.822 75.5743 734.495 75.7434C731.104 76.1754 727.724 77.8796 724.357 80.8559C720.972 83.6847 717.763 87.3151 714.731 91.7472C711.681 96.0317 709.055 100.712 706.855 105.787C704.654 110.862 703.034 115.789 701.995 120.567Z" fill="white"/>
</svg>
