<svg width="1600" height="1600" viewBox="0 0 1600 1600" fill="none" xmlns="http://www.w3.org/2000/svg">
<rect width="1600" height="1600" rx="500" fill="url(#paint0_linear_1_2)"/>
<circle cx="340" cy="1170" r="65" fill="white"/>
<circle cx="790" cy="1170" r="75" fill="white"/>
<circle cx="1240" cy="1170" r="85" fill="white"/>
<circle cx="565" cy="780" r="95" fill="white"/>
<circle cx="1015" cy="780" r="105" fill="white"/>
<circle cx="790" cy="390" r="115" fill="white"/>
<path d="M379.603 1077.12L489.392 886.957C492.61 881.383 499.899 879.838 505.469 883.062C511.034 886.283 513.39 893.392 510.175 898.96L400.384 1089.12C397.203 1094.63 389.941 1096.05 384.431 1092.87C378.912 1089.68 376.417 1082.63 379.603 1077.12Z" fill="white"/>
<path d="M724.576 1080.39L619.825 898.96C616.61 893.392 618.966 886.283 624.531 883.062C630.101 879.838 637.39 881.383 640.608 886.957L745.358 1068.39C748.557 1073.93 746.115 1081 740.575 1084.2C735.041 1087.4 727.771 1085.93 724.576 1080.39Z" fill="white"/>
<path d="M834.642 1068.39L934.369 895.657C937.595 890.07 944.888 888.494 950.471 891.725C956.049 894.954 958.375 902.079 955.152 907.66L855.424 1080.39C852.229 1085.93 844.96 1087.4 839.426 1084.2C833.886 1081 831.443 1073.93 834.642 1068.39Z" fill="white"/>
<path d="M1169.54 1071.68L1074.85 907.66C1071.63 902.079 1073.95 894.954 1079.53 891.725C1085.11 888.494 1092.41 890.07 1095.63 895.657L1190.33 1059.67C1193.54 1065.23 1191.14 1072.33 1185.58 1075.54C1180.03 1078.74 1172.75 1077.23 1169.54 1071.68Z" fill="white"/>
<path d="M619.7 660.968L704.349 514.352C707.581 508.754 714.877 507.15 720.472 510.388C726.061 513.623 728.361 520.762 725.132 526.354L640.483 672.971C637.267 678.54 629.987 680.088 624.418 676.873C618.845 673.655 616.482 666.541 619.7 660.968Z" fill="white"/>
<g filter="url(#filter0_d_1_2)">
<path d="M934.494 664.271L854.868 526.354C851.639 520.762 853.939 513.623 859.528 510.388C865.123 507.15 872.419 508.754 875.651 514.352L955.277 652.268C958.502 657.854 956.17 664.984 950.585 668.209C945.003 671.433 937.717 669.853 934.494 664.271Z" fill="white"/>
</g>
<defs>
<filter id="filter0_d_1_2" x="849.393" y="508.731" width="111.351" height="169.132" filterUnits="userSpaceOnUse" color-interpolation-filters="sRGB">
<feFlood flood-opacity="0" result="BackgroundImageFix"/>
<feColorMatrix in="SourceAlpha" type="matrix" values="0 0 0 0 0 0 0 0 0 0 0 0 0 0 0 0 0 0 127 0" result="hardAlpha"/>
<feOffset dy="4"/>
<feGaussianBlur stdDeviation="2"/>
<feComposite in2="hardAlpha" operator="out"/>
<feColorMatrix type="matrix" values="0 0 0 0 0 0 0 0 0 0 0 0 0 0 0 0 0 0 0.25 0"/>
<feBlend mode="normal" in2="BackgroundImageFix" result="effect1_dropShadow_1_2"/>
<feBlend mode="normal" in="SourceGraphic" in2="effect1_dropShadow_1_2" result="shape"/>
</filter>
<linearGradient id="paint0_linear_1_2" x1="0" y1="0" x2="800" y2="800" gradientUnits="userSpaceOnUse">
<stop stop-color="#00105B"/>
<stop offset="1" stop-color="#000729"/>
</linearGradient>
</defs>
</svg>
