<svg width="26" height="25" viewBox="0 0 26 25" fill="none" xmlns="http://www.w3.org/2000/svg">
<path d="M0.231201 2.90782C0.231201 1.56829 1.3171 0.482391 2.65663 0.482391H4.73934V2.8551C4.73934 3.27734 5.08163 3.61963 5.50388 3.61963C5.92612 3.61963 6.26842 3.27734 6.26842 2.8551V0.482391H18.9756V2.8551C18.9756 3.27734 19.3179 3.61963 19.7401 3.61963C20.1623 3.61963 20.5046 3.27734 20.5046 2.8551V0.482391H23.2728C24.6123 0.482391 25.6982 1.56829 25.6982 2.90782V5.75507L0.231201 5.75507L0.231201 7.3896V2.90782Z" fill="#A3A3A3"/>
<path fill-rule="evenodd" clip-rule="evenodd" d="M0.231201 7.3896L25.6982 7.3896V21.8895C25.6982 23.229 24.6123 24.3149 23.2728 24.3149H2.65663C1.3171 24.3149 0.231201 23.229 0.231201 21.8895V7.3896ZM5.39842 10.3423C5.04898 10.3423 4.7657 10.6256 4.7657 10.975V12.9259C4.7657 13.2754 5.04898 13.5586 5.39842 13.5586H7.34931C7.69876 13.5586 7.98204 13.2754 7.98204 12.9259V10.975C7.98204 10.6256 7.69876 10.3423 7.34931 10.3423H5.39842ZM11.6729 10.3423C11.3235 10.3423 11.0402 10.6256 11.0402 10.975V12.9259C11.0402 13.2754 11.3235 13.5586 11.6729 13.5586H13.6238C13.9732 13.5586 14.2565 13.2754 14.2565 12.9259V10.975C14.2565 10.6256 13.9732 10.3423 13.6238 10.3423H11.6729ZM17.4201 10.975C17.4201 10.6256 17.7034 10.3423 18.0528 10.3423H20.0037C20.3532 10.3423 20.6365 10.6256 20.6365 10.975V12.9259C20.6365 13.2754 20.3532 13.5586 20.0037 13.5586H18.0528C17.7034 13.5586 17.4201 13.2754 17.4201 12.9259V10.975ZM18.0528 17.5131C17.7034 17.5131 17.4201 17.7964 17.4201 18.1459V20.0968C17.4201 20.4462 17.7034 20.7295 18.0528 20.7295H20.0037C20.3532 20.7295 20.6365 20.4462 20.6365 20.0968V18.1459C20.6365 17.7964 20.3532 17.5131 20.0037 17.5131H18.0528ZM11.0402 18.1459C11.0402 17.7964 11.3235 17.5131 11.6729 17.5131H13.6238C13.9732 17.5131 14.2565 17.7964 14.2565 18.1459V20.0968C14.2565 20.4462 13.9732 20.7295 13.6238 20.7295H11.6729C11.3235 20.7295 11.0402 20.4462 11.0402 20.0968V18.1459ZM5.39842 17.5131C5.04898 17.5131 4.7657 17.7964 4.7657 18.1459V20.0968C4.7657 20.4462 5.04898 20.7295 5.39842 20.7295H7.34931C7.69876 20.7295 7.98204 20.4462 7.98204 20.0968V18.1459C7.98204 17.7964 7.69876 17.5131 7.34931 17.5131H5.39842Z" fill="#A3A3A3"/>
</svg>
