<svg width="24" height="24" viewBox="0 0 24 24" fill="none" xmlns="http://www.w3.org/2000/svg">
<path d="M12 0C9.62663 0 7.30655 0.703788 5.33316 2.02236C3.35977 3.34094 1.8217 5.21508 0.913451 7.4078C0.00519939 9.60051 -0.232441 12.0133 0.230582 14.3411C0.693605 16.6689 1.83649 18.807 3.51472 20.4853C5.19295 22.1635 7.33115 23.3064 9.65892 23.7694C11.9867 24.2324 14.3995 23.9948 16.5922 23.0866C18.7849 22.1783 20.6591 20.6402 21.9776 18.6668C23.2962 16.6935 24 14.3734 24 12C23.9969 8.81835 22.7316 5.76791 20.4819 3.51814C18.2321 1.26838 15.1817 0.00309951 12 0ZM16.5424 16.5424C16.434 16.6531 16.3047 16.7411 16.162 16.8013C16.0193 16.8616 15.8661 16.893 15.7112 16.8937C15.4024 16.8893 15.1079 16.763 14.8917 16.5424L10.841 12.4917V4.60097C10.841 4.29048 10.9643 3.9927 11.1839 3.77314C11.4034 3.55359 11.7012 3.43024 12.0117 3.43024C12.3222 3.43024 12.62 3.55359 12.8395 3.77314C13.0591 3.9927 13.1824 4.29048 13.1824 4.60097V11.5317L16.5424 14.8917C16.7605 15.1111 16.8829 15.4078 16.8829 15.7171C16.8829 16.0264 16.7605 16.3231 16.5424 16.5424Z" fill="#A8A8A8"/>
</svg>
