<svg width="17" height="10" viewBox="0 0 17 10" fill="none" xmlns="http://www.w3.org/2000/svg">
<path fill-rule="evenodd" clip-rule="evenodd" d="M10.1184 9.47107C9.80205 9.78707 9.37317 9.96457 8.926 9.96457C8.47883 9.96457 8.04995 9.78707 7.73356 9.47107L1.36863 3.10839C1.05222 2.79184 0.874528 2.36256 0.874634 1.91499C0.874739 1.46742 1.05264 1.03823 1.36919 0.721823C1.68574 0.405419 2.11502 0.227724 2.56259 0.227829C3.01016 0.227935 3.43935 0.405832 3.75576 0.722385L8.926 5.89263L14.0962 0.722385C14.4143 0.414855 14.8405 0.24457 15.283 0.248204C15.7254 0.251839 16.1487 0.429103 16.4617 0.741817C16.7747 1.05453 16.9524 1.47767 16.9564 1.92011C16.9605 2.36254 16.7906 2.78887 16.4834 3.10727L10.1196 9.4722L10.1184 9.47107Z" fill="white"/>
</svg>
