<svg width="20" height="12" viewBox="0 0 20 12" fill="none" xmlns="http://www.w3.org/2000/svg">
<path fill-rule="evenodd" clip-rule="evenodd" d="M11.4825 11.3918C11.0925 11.7812 10.5639 12 10.0128 12C9.46173 12 8.93316 11.7812 8.54322 11.3918L0.698786 3.55014C0.308835 3.16 0.0898359 2.63094 0.0899659 2.07933C0.0900959 1.52773 0.309344 0.998772 0.699479 0.608821C1.08961 0.21887 1.61868 -0.000129945 2.17028 5.78466e-08C2.72188 0.000130061 3.25084 0.219379 3.6408 0.609513L10.0128 6.98156L16.3849 0.609513C16.7769 0.2305 17.3022 0.0206319 17.8474 0.0251114C18.3927 0.0295909 18.9144 0.248059 19.3002 0.633463C19.686 1.01887 19.9049 1.54037 19.9099 2.08564C19.9149 2.63092 19.7055 3.15635 19.3269 3.54875L11.4838 11.3932L11.4825 11.3918Z" fill="#72819C"/>
</svg>
