<svg width="24" height="23" viewBox="0 0 24 23" fill="none" xmlns="http://www.w3.org/2000/svg">
<path fill-rule="evenodd" clip-rule="evenodd" d="M18.6 2.4C18.2431 2.4 17.9009 2.54176 17.6485 2.79411L3.48358 16.9591L2.84926 19.4963L5.38652 18.862L19.5515 4.69705C19.8038 4.44471 19.9456 4.10245 19.9456 3.74558C19.9456 3.38871 19.8038 3.04646 19.5515 2.79411C19.2991 2.54176 18.9569 2.4 18.6 2.4ZM15.9515 1.09705C16.6539 0.394622 17.6066 0 18.6 0C19.5934 0 20.5461 0.394622 21.2485 1.09705C21.951 1.79949 22.3456 2.75219 22.3456 3.74558C22.3456 4.73897 21.951 5.69167 21.2485 6.39411L6.84855 20.7941C6.69476 20.9479 6.50206 21.057 6.29106 21.1097L1.49107 22.3097C1.08214 22.412 0.649553 22.2921 0.351497 21.9941C0.0534409 21.696 -0.066378 21.2635 0.0358544 20.8545L1.23585 16.0545C1.2886 15.8435 1.39771 15.6508 1.5515 15.497L15.9515 1.09705ZM10.8 21.1456C10.8 20.4828 11.3373 19.9456 12 19.9456H22.8C23.4627 19.9456 24 20.4828 24 21.1456C24 21.8083 23.4627 22.3456 22.8 22.3456H12C11.3373 22.3456 10.8 21.8083 10.8 21.1456Z" fill="#C8C8C8"/>
</svg>
