<svg width="21" height="21" viewBox="0 0 21 21" fill="none" xmlns="http://www.w3.org/2000/svg">
<path d="M9.45983 0.624573C10.2546 0.624742 11.0167 0.940596 11.5786 1.50266L19.2806 9.20465C19.9193 9.84346 20.2781 10.7098 20.2781 11.6131C20.2781 12.5165 19.9193 13.3828 19.2806 14.0216L13.6944 19.6078C13.0556 20.2465 12.1893 20.6053 11.2859 20.6053C10.3826 20.6053 9.51625 20.2465 8.87744 19.6078L1.17545 11.9058C0.613386 11.3439 0.297533 10.5818 0.297363 9.78704V4.62041C0.297363 3.56065 0.718353 2.54429 1.46772 1.79493C2.21708 1.04556 3.23344 0.624573 4.29321 0.624573H9.45983ZM5.79165 4.12093C5.28759 4.12078 4.80211 4.31114 4.43251 4.65388C4.06292 4.99661 3.83652 5.46638 3.79872 5.96901L3.79373 6.11886C3.79373 6.51401 3.9109 6.90028 4.13044 7.22884C4.34997 7.5574 4.662 7.81348 5.02707 7.96469C5.39215 8.11591 5.79386 8.15548 6.18142 8.07839C6.56898 8.0013 6.92498 7.81101 7.20439 7.5316C7.4838 7.25218 7.67409 6.89619 7.75118 6.50863C7.82827 6.12107 7.7887 5.71936 7.63749 5.35428C7.48627 4.98921 7.23019 4.67718 6.90163 4.45765C6.57308 4.23811 6.1868 4.12093 5.79165 4.12093Z" fill="#F4FAFF"/>
</svg>
